M48
; DRILL file {KiCad 9.0.4} date 2025-12-01T10:50:32-0500
; FORMAT={-:-/ absolute / inch / decimal}
; #@! TF.CreationDate,2025-12-01T10:50:32-05:00
; #@! TF.GenerationSoftware,Kicad,Pcbnew,9.0.4
; #@! TF.FileFunction,Plated,1,2,PTH
FMAT,2
INCH
; #@! TA.AperFunction,Plated,PTH,ComponentDrill
T1C0.0236
; #@! TA.AperFunction,Plated,PTH,ComponentDrill
T2C0.0307
; #@! TA.AperFunction,Plated,PTH,ComponentDrill
T3C0.0315
; #@! TA.AperFunction,Plated,PTH,ComponentDrill
T4C0.0340
; #@! TA.AperFunction,Plated,PTH,ComponentDrill
T5C0.0360
; #@! TA.AperFunction,Plated,PTH,ComponentDrill
T6C0.0390
; #@! TA.AperFunction,Plated,PTH,ComponentDrill
T7C0.0394
; #@! TA.AperFunction,Plated,PTH,ComponentDrill
T8C0.0433
; #@! TA.AperFunction,Plated,PTH,ComponentDrill
T9C0.0472
; #@! TA.AperFunction,Plated,PTH,ComponentDrill
T10C0.0512
; #@! TA.AperFunction,Plated,PTH,ComponentDrill
T11C0.0630
%
G90
G05
T2
X2.6386Y-2.9689
X2.6386Y-3.2815
X2.7386Y-2.9689
X2.7386Y-2.9689
X2.7386Y-3.2815
X2.7555Y-1.7231
X2.7555Y-2.0357
X2.8386Y-2.9689
X2.8386Y-3.2815
X2.8555Y-1.7231
X2.8555Y-2.0357
X2.9386Y-2.9689
X2.9386Y-3.2815
X2.9555Y-1.7231
X2.9555Y-2.0357
X3.0555Y-1.7231
X3.0555Y-2.0357
T3
X0.6856Y-0.4092
X0.6856Y-0.5687
X0.8087Y-1.7776
X1.0856Y-0.4092
X1.0856Y-0.5687
X1.1087Y-1.5016
X1.2087Y-1.5016
X1.2087Y-1.7776
X1.3087Y-1.5016
X1.5524Y-1.502
X1.5524Y-1.7776
X1.7492Y-1.502
X1.7492Y-1.7776
X1.989Y-1.4024
X1.989Y-1.5024
X1.989Y-1.6024
X2.4563Y-1.3625
X2.4563Y-2.3901
X2.6831Y-3.5894
X2.7831Y-3.5894
X2.8831Y-3.5894
X2.9563Y-1.3625
X2.9563Y-2.3901
X3.0945Y-3.5406
X3.0945Y-3.639
X3.5331Y-1.8976
X3.5331Y-1.9976
X3.5331Y-2.0976
X3.7378Y-2.6961
X3.7378Y-3.1961
X3.7378Y-3.4168
X3.7378Y-3.5168
X3.7378Y-3.6168
X3.7575Y-1.3319
X3.7575Y-1.8319
X4.0075Y-1.0638
X4.0075Y-1.1638
X4.0075Y-1.2638
X4.0075Y-1.3819
X4.0075Y-1.4819
X4.0075Y-1.5819
X4.0724Y-3.0988
X4.0724Y-3.1988
X4.0724Y-3.2988
X4.0724Y-3.4169
X4.0724Y-3.5169
X4.0724Y-3.6169
X4.3717Y-3.6886
X4.5685Y-3.6886
X4.6551Y-1.885
X4.852Y-1.885
T4
X1.486Y-0.2909
X1.486Y-0.4878
X6.237Y-1.5508
X6.4339Y-1.5508
T5
X5.6854Y-1.5504
X5.9134Y-1.5504
T7
X0.1421Y-2.287
X0.1421Y-2.387
X0.1421Y-2.487
X0.1421Y-2.587
X0.1421Y-2.687
X0.1421Y-2.987
X0.1421Y-3.087
X0.1421Y-3.187
X0.1421Y-3.287
X0.1421Y-3.387
X0.1421Y-3.587
X0.1421Y-3.687
X0.2421Y-2.287
X0.2421Y-2.387
X0.2421Y-2.487
X0.2421Y-2.587
X0.2421Y-2.687
X0.2421Y-2.987
X0.2421Y-3.087
X0.2421Y-3.187
X0.2421Y-3.287
X0.2421Y-3.387
X0.2421Y-3.587
X0.2421Y-3.687
X0.3421Y-2.287
X0.3421Y-2.387
X0.3421Y-2.487
X0.3421Y-2.587
X0.3421Y-2.687
X0.3421Y-2.987
X0.3421Y-3.087
X0.3421Y-3.187
X0.3421Y-3.287
X0.3421Y-3.387
X0.3421Y-3.587
X0.3421Y-3.687
X0.4421Y-2.287
X0.4421Y-2.387
X0.4421Y-2.487
X0.4421Y-2.587
X0.4421Y-2.687
X0.4421Y-2.987
X0.4421Y-3.087
X0.4421Y-3.187
X0.4421Y-3.287
X0.4421Y-3.387
X0.4421Y-3.587
X0.4421Y-3.687
X0.5421Y-2.287
X0.5421Y-2.387
X0.5421Y-2.487
X0.5421Y-2.587
X0.5421Y-2.687
X0.5421Y-2.987
X0.5421Y-3.087
X0.5421Y-3.187
X0.5421Y-3.287
X0.5421Y-3.387
X0.5421Y-3.587
X0.5421Y-3.687
X0.6421Y-2.2862
X0.6421Y-2.3862
X0.6421Y-2.4862
X0.6421Y-2.5862
X0.6421Y-2.6862
X0.6421Y-2.987
X0.6421Y-3.087
X0.6421Y-3.187
X0.6421Y-3.287
X0.6421Y-3.387
X0.6421Y-3.587
X0.6421Y-3.687
X0.7421Y-2.2862
X0.7421Y-2.3862
X0.7421Y-2.4862
X0.7421Y-2.5862
X0.7421Y-2.6862
X0.7421Y-2.987
X0.7421Y-3.087
X0.7421Y-3.187
X0.7421Y-3.287
X0.7421Y-3.387
X0.7421Y-3.587
X0.7421Y-3.687
X0.8421Y-2.2862
X0.8421Y-2.3862
X0.8421Y-2.4862
X0.8421Y-2.5862
X0.8421Y-2.6862
X0.8421Y-2.987
X0.8421Y-3.087
X0.8421Y-3.187
X0.8421Y-3.287
X0.8421Y-3.387
X0.8421Y-3.587
X0.8421Y-3.687
X0.9421Y-2.2862
X0.9421Y-2.3862
X0.9421Y-2.4862
X0.9421Y-2.5862
X0.9421Y-2.6862
X0.9421Y-2.987
X0.9421Y-3.087
X0.9421Y-3.187
X0.9421Y-3.287
X0.9421Y-3.387
X0.9421Y-3.587
X0.9421Y-3.687
X1.0421Y-2.2862
X1.0421Y-2.3862
X1.0421Y-2.4862
X1.0421Y-2.5862
X1.0421Y-2.6862
X1.0421Y-2.987
X1.0421Y-3.087
X1.0421Y-3.187
X1.0421Y-3.287
X1.0421Y-3.387
X1.0421Y-3.587
X1.0421Y-3.687
X1.1402Y-2.2862
X1.1402Y-2.3862
X1.1402Y-2.4862
X1.1402Y-2.5862
X1.1402Y-2.6862
X1.1421Y-2.987
X1.1421Y-3.087
X1.1421Y-3.187
X1.1421Y-3.287
X1.1421Y-3.387
X1.1421Y-3.587
X1.1421Y-3.687
X1.2402Y-2.2862
X1.2402Y-2.3862
X1.2402Y-2.4862
X1.2402Y-2.5862
X1.2402Y-2.6862
X1.2421Y-2.987
X1.2421Y-3.087
X1.2421Y-3.187
X1.2421Y-3.287
X1.2421Y-3.387
X1.2421Y-3.587
X1.2421Y-3.687
X1.3402Y-2.2862
X1.3402Y-2.3862
X1.3402Y-2.4862
X1.3402Y-2.5862
X1.3402Y-2.6862
X1.3421Y-2.987
X1.3421Y-3.087
X1.3421Y-3.187
X1.3421Y-3.287
X1.3421Y-3.387
X1.3421Y-3.587
X1.3421Y-3.687
X1.4402Y-2.2862
X1.4402Y-2.3862
X1.4402Y-2.4862
X1.4402Y-2.5862
X1.4402Y-2.6862
X1.4421Y-2.987
X1.4421Y-3.087
X1.4421Y-3.187
X1.4421Y-3.287
X1.4421Y-3.387
X1.4421Y-3.587
X1.4421Y-3.687
X1.5402Y-2.2862
X1.5402Y-2.3862
X1.5402Y-2.4862
X1.5402Y-2.5862
X1.5402Y-2.6862
X1.5421Y-2.987
X1.5421Y-3.087
X1.5421Y-3.187
X1.5421Y-3.287
X1.5421Y-3.387
X1.5421Y-3.587
X1.5421Y-3.687
X1.6402Y-2.2854
X1.6402Y-2.3854
X1.6402Y-2.4854
X1.6402Y-2.5854
X1.6402Y-2.6854
X1.6421Y-2.987
X1.6421Y-3.087
X1.6421Y-3.187
X1.6421Y-3.287
X1.6421Y-3.387
X1.6421Y-3.587
X1.6421Y-3.687
X1.7402Y-2.2854
X1.7402Y-2.3854
X1.7402Y-2.4854
X1.7402Y-2.5854
X1.7402Y-2.6854
X1.7421Y-2.987
X1.7421Y-3.087
X1.7421Y-3.187
X1.7421Y-3.287
X1.7421Y-3.387
X1.7421Y-3.587
X1.7421Y-3.687
X1.8402Y-2.2854
X1.8402Y-2.3854
X1.8402Y-2.4854
X1.8402Y-2.5854
X1.8402Y-2.6854
X1.8406Y-1.987
X1.8421Y-2.987
X1.8421Y-3.087
X1.8421Y-3.187
X1.8421Y-3.287
X1.8421Y-3.387
X1.8421Y-3.587
X1.8421Y-3.687
X1.9402Y-2.2854
X1.9402Y-2.3854
X1.9402Y-2.4854
X1.9402Y-2.5854
X1.9402Y-2.6854
X1.9406Y-1.987
X1.9421Y-2.987
X1.9421Y-3.087
X1.9421Y-3.187
X1.9421Y-3.287
X1.9421Y-3.387
X1.9421Y-3.587
X1.9421Y-3.687
X2.0402Y-2.1854
X2.0402Y-2.2854
X2.0402Y-2.3854
X2.0402Y-2.4854
X2.0402Y-2.5854
X2.0402Y-2.6854
X2.0406Y-1.987
X2.0421Y-2.987
X2.0421Y-3.087
X2.0421Y-3.187
X2.0421Y-3.287
X2.0421Y-3.387
X2.0421Y-3.587
X2.0421Y-3.687
X2.1421Y-3.587
X2.1421Y-3.687
T8
X3.5213Y-1.3327
X3.5213Y-1.7327
X4.2559Y-2.1429
X4.2559Y-2.4932
X4.3559Y-2.1429
X4.3559Y-2.4932
X4.4559Y-2.1429
X4.4559Y-2.4932
T9
X0.6087Y-1.9744
X1.2087Y-1.9744
X2.4634Y-1.5574
X2.4634Y-2.1971
X3.0634Y-1.5574
X3.0634Y-2.1971
X4.3535Y-2.8228
X4.3535Y-3.4228
X4.3559Y-1.2091
X4.3559Y-1.8091
X4.6394Y-1.6272
X4.6488Y-1.2315
X4.6551Y-2.8217
X4.6551Y-3.4217
X5.2394Y-1.2315
X5.2394Y-1.6272
X6.0268Y-1.9354
X6.0268Y-2.8213
T10
X6.6472Y-1.9839
X6.6472Y-2.1807
T11
X0.6719Y-0.1957
X0.8087Y-1.3094
X0.9081Y-0.1957
X1.7492Y-1.3051
X2.4177Y-3.5902
X2.4577Y-1.7296
X2.4577Y-2.017
X5.0528Y-2.1291
X6.5067Y-2.5606
T1
G00X0.1612Y-0.3226
M15
G01X0.1376Y-0.3226
M16
G05
G00X0.1612Y-0.6628
M15
G01X0.1376Y-0.6628
M16
G05
G00X0.3108Y-0.3226
M15
G01X0.2872Y-0.3226
M16
G05
G00X0.3108Y-0.6628
M15
G01X0.2872Y-0.6628
M16
G05
T6
G00X0.3639Y-1.6016
M15
G01X0.3439Y-1.6016
M16
G05
G00X0.5726Y-1.4343
M15
G01X0.5526Y-1.4343
M16
G05
G00X0.5726Y-1.6508
M15
G01X0.5526Y-1.6508
M16
G05
M30
