%TF.GenerationSoftware,KiCad,Pcbnew,9.0.4*%
%TF.CreationDate,2025-12-01T10:50:38-05:00*%
%TF.ProjectId,Class D Amplifier V2,436c6173-7320-4442-9041-6d706c696669,rev?*%
%TF.SameCoordinates,Original*%
%TF.FileFunction,Legend,Bot*%
%TF.FilePolarity,Positive*%
%FSLAX46Y46*%
G04 Gerber Fmt 4.6, Leading zero omitted, Abs format (unit mm)*
G04 Created by KiCad (PCBNEW 9.0.4) date 2025-12-01 10:50:38*
%MOMM*%
%LPD*%
G01*
G04 APERTURE LIST*
G04 Aperture macros list*
%AMRoundRect*
0 Rectangle with rounded corners*
0 $1 Rounding radius*
0 $2 $3 $4 $5 $6 $7 $8 $9 X,Y pos of 4 corners*
0 Add a 4 corners polygon primitive as box body*
4,1,4,$2,$3,$4,$5,$6,$7,$8,$9,$2,$3,0*
0 Add four circle primitives for the rounded corners*
1,1,$1+$1,$2,$3*
1,1,$1+$1,$4,$5*
1,1,$1+$1,$6,$7*
1,1,$1+$1,$8,$9*
0 Add four rect primitives between the rounded corners*
20,1,$1+$1,$2,$3,$4,$5,0*
20,1,$1+$1,$4,$5,$6,$7,0*
20,1,$1+$1,$6,$7,$8,$9,0*
20,1,$1+$1,$8,$9,$2,$3,0*%
G04 Aperture macros list end*
%ADD10C,0.010000*%
%ADD11C,2.400000*%
%ADD12O,2.400000X2.400000*%
%ADD13C,2.000000*%
%ADD14R,1.500000X1.500000*%
%ADD15C,1.500000*%
%ADD16RoundRect,0.102000X-0.750000X0.750000X-0.750000X-0.750000X0.750000X-0.750000X0.750000X0.750000X0*%
%ADD17C,1.704000*%
%ADD18C,3.200000*%
%ADD19C,2.800000*%
%ADD20R,2.200000X2.200000*%
%ADD21O,2.200000X2.200000*%
%ADD22R,2.000000X2.000000*%
%ADD23C,1.600000*%
%ADD24C,0.990600*%
%ADD25O,2.500000X2.000000*%
%ADD26C,2.704000*%
%ADD27RoundRect,0.102000X0.750000X-0.750000X0.750000X0.750000X-0.750000X0.750000X-0.750000X-0.750000X0*%
%ADD28R,1.905000X2.000000*%
%ADD29O,1.905000X2.000000*%
G04 APERTURE END LIST*
%LPC*%
D10*
%TO.C,J2*%
X4129000Y-7545000D02*
X4163000Y-7548000D01*
X4197000Y-7552000D01*
X4230000Y-7558000D01*
X4263000Y-7566000D01*
X4296000Y-7576000D01*
X4328000Y-7587000D01*
X4359000Y-7600000D01*
X4390000Y-7615000D01*
X4420000Y-7631000D01*
X4449000Y-7649000D01*
X4477000Y-7668000D01*
X4504000Y-7689000D01*
X4530000Y-7711000D01*
X4555000Y-7734000D01*
X4578000Y-7759000D01*
X4600000Y-7785000D01*
X4621000Y-7812000D01*
X4640000Y-7840000D01*
X4658000Y-7869000D01*
X4674000Y-7899000D01*
X4689000Y-7930000D01*
X4702000Y-7961000D01*
X4713000Y-7993000D01*
X4723000Y-8026000D01*
X4731000Y-8059000D01*
X4737000Y-8092000D01*
X4741000Y-8126000D01*
X4744000Y-8160000D01*
X4745000Y-8194000D01*
X4744000Y-8228000D01*
X4741000Y-8262000D01*
X4737000Y-8296000D01*
X4731000Y-8329000D01*
X4723000Y-8362000D01*
X4713000Y-8395000D01*
X4702000Y-8427000D01*
X4689000Y-8458000D01*
X4674000Y-8489000D01*
X4658000Y-8519000D01*
X4640000Y-8548000D01*
X4621000Y-8576000D01*
X4600000Y-8603000D01*
X4578000Y-8629000D01*
X4555000Y-8654000D01*
X4530000Y-8677000D01*
X4504000Y-8699000D01*
X4477000Y-8720000D01*
X4449000Y-8739000D01*
X4420000Y-8757000D01*
X4390000Y-8773000D01*
X4359000Y-8788000D01*
X4328000Y-8801000D01*
X4296000Y-8812000D01*
X4263000Y-8822000D01*
X4230000Y-8830000D01*
X4197000Y-8836000D01*
X4163000Y-8840000D01*
X4129000Y-8843000D01*
X4095000Y-8844000D01*
X3495000Y-8844000D01*
X3461000Y-8843000D01*
X3427000Y-8840000D01*
X3393000Y-8836000D01*
X3360000Y-8830000D01*
X3327000Y-8822000D01*
X3294000Y-8812000D01*
X3262000Y-8801000D01*
X3231000Y-8788000D01*
X3200000Y-8773000D01*
X3170000Y-8757000D01*
X3141000Y-8739000D01*
X3113000Y-8720000D01*
X3086000Y-8699000D01*
X3060000Y-8677000D01*
X3035000Y-8654000D01*
X3012000Y-8629000D01*
X2990000Y-8603000D01*
X2969000Y-8576000D01*
X2950000Y-8548000D01*
X2932000Y-8519000D01*
X2916000Y-8489000D01*
X2901000Y-8458000D01*
X2888000Y-8427000D01*
X2877000Y-8395000D01*
X2867000Y-8362000D01*
X2859000Y-8329000D01*
X2853000Y-8296000D01*
X2849000Y-8262000D01*
X2846000Y-8228000D01*
X2845000Y-8194000D01*
X2846000Y-8160000D01*
X2849000Y-8126000D01*
X2853000Y-8092000D01*
X2859000Y-8059000D01*
X2867000Y-8026000D01*
X2877000Y-7993000D01*
X2888000Y-7961000D01*
X2901000Y-7930000D01*
X2916000Y-7899000D01*
X2932000Y-7869000D01*
X2950000Y-7840000D01*
X2969000Y-7812000D01*
X2990000Y-7785000D01*
X3012000Y-7759000D01*
X3035000Y-7734000D01*
X3060000Y-7711000D01*
X3086000Y-7689000D01*
X3113000Y-7668000D01*
X3141000Y-7649000D01*
X3170000Y-7631000D01*
X3200000Y-7615000D01*
X3231000Y-7600000D01*
X3262000Y-7587000D01*
X3294000Y-7576000D01*
X3327000Y-7566000D01*
X3360000Y-7558000D01*
X3393000Y-7552000D01*
X3427000Y-7548000D01*
X3461000Y-7545000D01*
X3495000Y-7544000D01*
X4095000Y-7544000D01*
X4129000Y-7545000D01*
G36*
X4129000Y-7545000D02*
G01*
X4163000Y-7548000D01*
X4197000Y-7552000D01*
X4230000Y-7558000D01*
X4263000Y-7566000D01*
X4296000Y-7576000D01*
X4328000Y-7587000D01*
X4359000Y-7600000D01*
X4390000Y-7615000D01*
X4420000Y-7631000D01*
X4449000Y-7649000D01*
X4477000Y-7668000D01*
X4504000Y-7689000D01*
X4530000Y-7711000D01*
X4555000Y-7734000D01*
X4578000Y-7759000D01*
X4600000Y-7785000D01*
X4621000Y-7812000D01*
X4640000Y-7840000D01*
X4658000Y-7869000D01*
X4674000Y-7899000D01*
X4689000Y-7930000D01*
X4702000Y-7961000D01*
X4713000Y-7993000D01*
X4723000Y-8026000D01*
X4731000Y-8059000D01*
X4737000Y-8092000D01*
X4741000Y-8126000D01*
X4744000Y-8160000D01*
X4745000Y-8194000D01*
X4744000Y-8228000D01*
X4741000Y-8262000D01*
X4737000Y-8296000D01*
X4731000Y-8329000D01*
X4723000Y-8362000D01*
X4713000Y-8395000D01*
X4702000Y-8427000D01*
X4689000Y-8458000D01*
X4674000Y-8489000D01*
X4658000Y-8519000D01*
X4640000Y-8548000D01*
X4621000Y-8576000D01*
X4600000Y-8603000D01*
X4578000Y-8629000D01*
X4555000Y-8654000D01*
X4530000Y-8677000D01*
X4504000Y-8699000D01*
X4477000Y-8720000D01*
X4449000Y-8739000D01*
X4420000Y-8757000D01*
X4390000Y-8773000D01*
X4359000Y-8788000D01*
X4328000Y-8801000D01*
X4296000Y-8812000D01*
X4263000Y-8822000D01*
X4230000Y-8830000D01*
X4197000Y-8836000D01*
X4163000Y-8840000D01*
X4129000Y-8843000D01*
X4095000Y-8844000D01*
X3495000Y-8844000D01*
X3461000Y-8843000D01*
X3427000Y-8840000D01*
X3393000Y-8836000D01*
X3360000Y-8830000D01*
X3327000Y-8822000D01*
X3294000Y-8812000D01*
X3262000Y-8801000D01*
X3231000Y-8788000D01*
X3200000Y-8773000D01*
X3170000Y-8757000D01*
X3141000Y-8739000D01*
X3113000Y-8720000D01*
X3086000Y-8699000D01*
X3060000Y-8677000D01*
X3035000Y-8654000D01*
X3012000Y-8629000D01*
X2990000Y-8603000D01*
X2969000Y-8576000D01*
X2950000Y-8548000D01*
X2932000Y-8519000D01*
X2916000Y-8489000D01*
X2901000Y-8458000D01*
X2888000Y-8427000D01*
X2877000Y-8395000D01*
X2867000Y-8362000D01*
X2859000Y-8329000D01*
X2853000Y-8296000D01*
X2849000Y-8262000D01*
X2846000Y-8228000D01*
X2845000Y-8194000D01*
X2846000Y-8160000D01*
X2849000Y-8126000D01*
X2853000Y-8092000D01*
X2859000Y-8059000D01*
X2867000Y-8026000D01*
X2877000Y-7993000D01*
X2888000Y-7961000D01*
X2901000Y-7930000D01*
X2916000Y-7899000D01*
X2932000Y-7869000D01*
X2950000Y-7840000D01*
X2969000Y-7812000D01*
X2990000Y-7785000D01*
X3012000Y-7759000D01*
X3035000Y-7734000D01*
X3060000Y-7711000D01*
X3086000Y-7689000D01*
X3113000Y-7668000D01*
X3141000Y-7649000D01*
X3170000Y-7631000D01*
X3200000Y-7615000D01*
X3231000Y-7600000D01*
X3262000Y-7587000D01*
X3294000Y-7576000D01*
X3327000Y-7566000D01*
X3360000Y-7558000D01*
X3393000Y-7552000D01*
X3427000Y-7548000D01*
X3461000Y-7545000D01*
X3495000Y-7544000D01*
X4095000Y-7544000D01*
X4129000Y-7545000D01*
G37*
X4129000Y-16185000D02*
X4163000Y-16188000D01*
X4197000Y-16192000D01*
X4230000Y-16198000D01*
X4263000Y-16206000D01*
X4296000Y-16216000D01*
X4328000Y-16227000D01*
X4359000Y-16240000D01*
X4390000Y-16255000D01*
X4420000Y-16271000D01*
X4449000Y-16289000D01*
X4477000Y-16308000D01*
X4504000Y-16329000D01*
X4530000Y-16351000D01*
X4555000Y-16374000D01*
X4578000Y-16399000D01*
X4600000Y-16425000D01*
X4621000Y-16452000D01*
X4640000Y-16480000D01*
X4658000Y-16509000D01*
X4674000Y-16539000D01*
X4689000Y-16570000D01*
X4702000Y-16601000D01*
X4713000Y-16633000D01*
X4723000Y-16666000D01*
X4731000Y-16699000D01*
X4737000Y-16732000D01*
X4741000Y-16766000D01*
X4744000Y-16800000D01*
X4745000Y-16834000D01*
X4744000Y-16868000D01*
X4741000Y-16902000D01*
X4737000Y-16936000D01*
X4731000Y-16969000D01*
X4723000Y-17002000D01*
X4713000Y-17035000D01*
X4702000Y-17067000D01*
X4689000Y-17098000D01*
X4674000Y-17129000D01*
X4658000Y-17159000D01*
X4640000Y-17188000D01*
X4621000Y-17216000D01*
X4600000Y-17243000D01*
X4578000Y-17269000D01*
X4555000Y-17294000D01*
X4530000Y-17317000D01*
X4504000Y-17339000D01*
X4477000Y-17360000D01*
X4449000Y-17379000D01*
X4420000Y-17397000D01*
X4390000Y-17413000D01*
X4359000Y-17428000D01*
X4328000Y-17441000D01*
X4296000Y-17452000D01*
X4263000Y-17462000D01*
X4230000Y-17470000D01*
X4197000Y-17476000D01*
X4163000Y-17480000D01*
X4129000Y-17483000D01*
X4095000Y-17484000D01*
X3495000Y-17484000D01*
X3461000Y-17483000D01*
X3427000Y-17480000D01*
X3393000Y-17476000D01*
X3360000Y-17470000D01*
X3327000Y-17462000D01*
X3294000Y-17452000D01*
X3262000Y-17441000D01*
X3231000Y-17428000D01*
X3200000Y-17413000D01*
X3170000Y-17397000D01*
X3141000Y-17379000D01*
X3113000Y-17360000D01*
X3086000Y-17339000D01*
X3060000Y-17317000D01*
X3035000Y-17294000D01*
X3012000Y-17269000D01*
X2990000Y-17243000D01*
X2969000Y-17216000D01*
X2950000Y-17188000D01*
X2932000Y-17159000D01*
X2916000Y-17129000D01*
X2901000Y-17098000D01*
X2888000Y-17067000D01*
X2877000Y-17035000D01*
X2867000Y-17002000D01*
X2859000Y-16969000D01*
X2853000Y-16936000D01*
X2849000Y-16902000D01*
X2846000Y-16868000D01*
X2845000Y-16834000D01*
X2846000Y-16800000D01*
X2849000Y-16766000D01*
X2853000Y-16732000D01*
X2859000Y-16699000D01*
X2867000Y-16666000D01*
X2877000Y-16633000D01*
X2888000Y-16601000D01*
X2901000Y-16570000D01*
X2916000Y-16539000D01*
X2932000Y-16509000D01*
X2950000Y-16480000D01*
X2969000Y-16452000D01*
X2990000Y-16425000D01*
X3012000Y-16399000D01*
X3035000Y-16374000D01*
X3060000Y-16351000D01*
X3086000Y-16329000D01*
X3113000Y-16308000D01*
X3141000Y-16289000D01*
X3170000Y-16271000D01*
X3200000Y-16255000D01*
X3231000Y-16240000D01*
X3262000Y-16227000D01*
X3294000Y-16216000D01*
X3327000Y-16206000D01*
X3360000Y-16198000D01*
X3393000Y-16192000D01*
X3427000Y-16188000D01*
X3461000Y-16185000D01*
X3495000Y-16184000D01*
X4095000Y-16184000D01*
X4129000Y-16185000D01*
G36*
X4129000Y-16185000D02*
G01*
X4163000Y-16188000D01*
X4197000Y-16192000D01*
X4230000Y-16198000D01*
X4263000Y-16206000D01*
X4296000Y-16216000D01*
X4328000Y-16227000D01*
X4359000Y-16240000D01*
X4390000Y-16255000D01*
X4420000Y-16271000D01*
X4449000Y-16289000D01*
X4477000Y-16308000D01*
X4504000Y-16329000D01*
X4530000Y-16351000D01*
X4555000Y-16374000D01*
X4578000Y-16399000D01*
X4600000Y-16425000D01*
X4621000Y-16452000D01*
X4640000Y-16480000D01*
X4658000Y-16509000D01*
X4674000Y-16539000D01*
X4689000Y-16570000D01*
X4702000Y-16601000D01*
X4713000Y-16633000D01*
X4723000Y-16666000D01*
X4731000Y-16699000D01*
X4737000Y-16732000D01*
X4741000Y-16766000D01*
X4744000Y-16800000D01*
X4745000Y-16834000D01*
X4744000Y-16868000D01*
X4741000Y-16902000D01*
X4737000Y-16936000D01*
X4731000Y-16969000D01*
X4723000Y-17002000D01*
X4713000Y-17035000D01*
X4702000Y-17067000D01*
X4689000Y-17098000D01*
X4674000Y-17129000D01*
X4658000Y-17159000D01*
X4640000Y-17188000D01*
X4621000Y-17216000D01*
X4600000Y-17243000D01*
X4578000Y-17269000D01*
X4555000Y-17294000D01*
X4530000Y-17317000D01*
X4504000Y-17339000D01*
X4477000Y-17360000D01*
X4449000Y-17379000D01*
X4420000Y-17397000D01*
X4390000Y-17413000D01*
X4359000Y-17428000D01*
X4328000Y-17441000D01*
X4296000Y-17452000D01*
X4263000Y-17462000D01*
X4230000Y-17470000D01*
X4197000Y-17476000D01*
X4163000Y-17480000D01*
X4129000Y-17483000D01*
X4095000Y-17484000D01*
X3495000Y-17484000D01*
X3461000Y-17483000D01*
X3427000Y-17480000D01*
X3393000Y-17476000D01*
X3360000Y-17470000D01*
X3327000Y-17462000D01*
X3294000Y-17452000D01*
X3262000Y-17441000D01*
X3231000Y-17428000D01*
X3200000Y-17413000D01*
X3170000Y-17397000D01*
X3141000Y-17379000D01*
X3113000Y-17360000D01*
X3086000Y-17339000D01*
X3060000Y-17317000D01*
X3035000Y-17294000D01*
X3012000Y-17269000D01*
X2990000Y-17243000D01*
X2969000Y-17216000D01*
X2950000Y-17188000D01*
X2932000Y-17159000D01*
X2916000Y-17129000D01*
X2901000Y-17098000D01*
X2888000Y-17067000D01*
X2877000Y-17035000D01*
X2867000Y-17002000D01*
X2859000Y-16969000D01*
X2853000Y-16936000D01*
X2849000Y-16902000D01*
X2846000Y-16868000D01*
X2845000Y-16834000D01*
X2846000Y-16800000D01*
X2849000Y-16766000D01*
X2853000Y-16732000D01*
X2859000Y-16699000D01*
X2867000Y-16666000D01*
X2877000Y-16633000D01*
X2888000Y-16601000D01*
X2901000Y-16570000D01*
X2916000Y-16539000D01*
X2932000Y-16509000D01*
X2950000Y-16480000D01*
X2969000Y-16452000D01*
X2990000Y-16425000D01*
X3012000Y-16399000D01*
X3035000Y-16374000D01*
X3060000Y-16351000D01*
X3086000Y-16329000D01*
X3113000Y-16308000D01*
X3141000Y-16289000D01*
X3170000Y-16271000D01*
X3200000Y-16255000D01*
X3231000Y-16240000D01*
X3262000Y-16227000D01*
X3294000Y-16216000D01*
X3327000Y-16206000D01*
X3360000Y-16198000D01*
X3393000Y-16192000D01*
X3427000Y-16188000D01*
X3461000Y-16185000D01*
X3495000Y-16184000D01*
X4095000Y-16184000D01*
X4129000Y-16185000D01*
G37*
X7929000Y-7545000D02*
X7963000Y-7548000D01*
X7997000Y-7552000D01*
X8030000Y-7558000D01*
X8063000Y-7566000D01*
X8096000Y-7576000D01*
X8128000Y-7587000D01*
X8159000Y-7600000D01*
X8190000Y-7615000D01*
X8220000Y-7631000D01*
X8249000Y-7649000D01*
X8277000Y-7668000D01*
X8304000Y-7689000D01*
X8330000Y-7711000D01*
X8355000Y-7734000D01*
X8378000Y-7759000D01*
X8400000Y-7785000D01*
X8421000Y-7812000D01*
X8440000Y-7840000D01*
X8458000Y-7869000D01*
X8474000Y-7899000D01*
X8489000Y-7930000D01*
X8502000Y-7961000D01*
X8513000Y-7993000D01*
X8523000Y-8026000D01*
X8531000Y-8059000D01*
X8537000Y-8092000D01*
X8541000Y-8126000D01*
X8544000Y-8160000D01*
X8545000Y-8194000D01*
X8544000Y-8228000D01*
X8541000Y-8262000D01*
X8537000Y-8296000D01*
X8531000Y-8329000D01*
X8523000Y-8362000D01*
X8513000Y-8395000D01*
X8502000Y-8427000D01*
X8489000Y-8458000D01*
X8474000Y-8489000D01*
X8458000Y-8519000D01*
X8440000Y-8548000D01*
X8421000Y-8576000D01*
X8400000Y-8603000D01*
X8378000Y-8629000D01*
X8355000Y-8654000D01*
X8330000Y-8677000D01*
X8304000Y-8699000D01*
X8277000Y-8720000D01*
X8249000Y-8739000D01*
X8220000Y-8757000D01*
X8190000Y-8773000D01*
X8159000Y-8788000D01*
X8128000Y-8801000D01*
X8096000Y-8812000D01*
X8063000Y-8822000D01*
X8030000Y-8830000D01*
X7997000Y-8836000D01*
X7963000Y-8840000D01*
X7929000Y-8843000D01*
X7895000Y-8844000D01*
X7295000Y-8844000D01*
X7261000Y-8843000D01*
X7227000Y-8840000D01*
X7193000Y-8836000D01*
X7160000Y-8830000D01*
X7127000Y-8822000D01*
X7094000Y-8812000D01*
X7062000Y-8801000D01*
X7031000Y-8788000D01*
X7000000Y-8773000D01*
X6970000Y-8757000D01*
X6941000Y-8739000D01*
X6913000Y-8720000D01*
X6886000Y-8699000D01*
X6860000Y-8677000D01*
X6835000Y-8654000D01*
X6812000Y-8629000D01*
X6790000Y-8603000D01*
X6769000Y-8576000D01*
X6750000Y-8548000D01*
X6732000Y-8519000D01*
X6716000Y-8489000D01*
X6701000Y-8458000D01*
X6688000Y-8427000D01*
X6677000Y-8395000D01*
X6667000Y-8362000D01*
X6659000Y-8329000D01*
X6653000Y-8296000D01*
X6649000Y-8262000D01*
X6646000Y-8228000D01*
X6645000Y-8194000D01*
X6646000Y-8160000D01*
X6649000Y-8126000D01*
X6653000Y-8092000D01*
X6659000Y-8059000D01*
X6667000Y-8026000D01*
X6677000Y-7993000D01*
X6688000Y-7961000D01*
X6701000Y-7930000D01*
X6716000Y-7899000D01*
X6732000Y-7869000D01*
X6750000Y-7840000D01*
X6769000Y-7812000D01*
X6790000Y-7785000D01*
X6812000Y-7759000D01*
X6835000Y-7734000D01*
X6860000Y-7711000D01*
X6886000Y-7689000D01*
X6913000Y-7668000D01*
X6941000Y-7649000D01*
X6970000Y-7631000D01*
X7000000Y-7615000D01*
X7031000Y-7600000D01*
X7062000Y-7587000D01*
X7094000Y-7576000D01*
X7127000Y-7566000D01*
X7160000Y-7558000D01*
X7193000Y-7552000D01*
X7227000Y-7548000D01*
X7261000Y-7545000D01*
X7295000Y-7544000D01*
X7895000Y-7544000D01*
X7929000Y-7545000D01*
G36*
X7929000Y-7545000D02*
G01*
X7963000Y-7548000D01*
X7997000Y-7552000D01*
X8030000Y-7558000D01*
X8063000Y-7566000D01*
X8096000Y-7576000D01*
X8128000Y-7587000D01*
X8159000Y-7600000D01*
X8190000Y-7615000D01*
X8220000Y-7631000D01*
X8249000Y-7649000D01*
X8277000Y-7668000D01*
X8304000Y-7689000D01*
X8330000Y-7711000D01*
X8355000Y-7734000D01*
X8378000Y-7759000D01*
X8400000Y-7785000D01*
X8421000Y-7812000D01*
X8440000Y-7840000D01*
X8458000Y-7869000D01*
X8474000Y-7899000D01*
X8489000Y-7930000D01*
X8502000Y-7961000D01*
X8513000Y-7993000D01*
X8523000Y-8026000D01*
X8531000Y-8059000D01*
X8537000Y-8092000D01*
X8541000Y-8126000D01*
X8544000Y-8160000D01*
X8545000Y-8194000D01*
X8544000Y-8228000D01*
X8541000Y-8262000D01*
X8537000Y-8296000D01*
X8531000Y-8329000D01*
X8523000Y-8362000D01*
X8513000Y-8395000D01*
X8502000Y-8427000D01*
X8489000Y-8458000D01*
X8474000Y-8489000D01*
X8458000Y-8519000D01*
X8440000Y-8548000D01*
X8421000Y-8576000D01*
X8400000Y-8603000D01*
X8378000Y-8629000D01*
X8355000Y-8654000D01*
X8330000Y-8677000D01*
X8304000Y-8699000D01*
X8277000Y-8720000D01*
X8249000Y-8739000D01*
X8220000Y-8757000D01*
X8190000Y-8773000D01*
X8159000Y-8788000D01*
X8128000Y-8801000D01*
X8096000Y-8812000D01*
X8063000Y-8822000D01*
X8030000Y-8830000D01*
X7997000Y-8836000D01*
X7963000Y-8840000D01*
X7929000Y-8843000D01*
X7895000Y-8844000D01*
X7295000Y-8844000D01*
X7261000Y-8843000D01*
X7227000Y-8840000D01*
X7193000Y-8836000D01*
X7160000Y-8830000D01*
X7127000Y-8822000D01*
X7094000Y-8812000D01*
X7062000Y-8801000D01*
X7031000Y-8788000D01*
X7000000Y-8773000D01*
X6970000Y-8757000D01*
X6941000Y-8739000D01*
X6913000Y-8720000D01*
X6886000Y-8699000D01*
X6860000Y-8677000D01*
X6835000Y-8654000D01*
X6812000Y-8629000D01*
X6790000Y-8603000D01*
X6769000Y-8576000D01*
X6750000Y-8548000D01*
X6732000Y-8519000D01*
X6716000Y-8489000D01*
X6701000Y-8458000D01*
X6688000Y-8427000D01*
X6677000Y-8395000D01*
X6667000Y-8362000D01*
X6659000Y-8329000D01*
X6653000Y-8296000D01*
X6649000Y-8262000D01*
X6646000Y-8228000D01*
X6645000Y-8194000D01*
X6646000Y-8160000D01*
X6649000Y-8126000D01*
X6653000Y-8092000D01*
X6659000Y-8059000D01*
X6667000Y-8026000D01*
X6677000Y-7993000D01*
X6688000Y-7961000D01*
X6701000Y-7930000D01*
X6716000Y-7899000D01*
X6732000Y-7869000D01*
X6750000Y-7840000D01*
X6769000Y-7812000D01*
X6790000Y-7785000D01*
X6812000Y-7759000D01*
X6835000Y-7734000D01*
X6860000Y-7711000D01*
X6886000Y-7689000D01*
X6913000Y-7668000D01*
X6941000Y-7649000D01*
X6970000Y-7631000D01*
X7000000Y-7615000D01*
X7031000Y-7600000D01*
X7062000Y-7587000D01*
X7094000Y-7576000D01*
X7127000Y-7566000D01*
X7160000Y-7558000D01*
X7193000Y-7552000D01*
X7227000Y-7548000D01*
X7261000Y-7545000D01*
X7295000Y-7544000D01*
X7895000Y-7544000D01*
X7929000Y-7545000D01*
G37*
X7929000Y-16185000D02*
X7963000Y-16188000D01*
X7997000Y-16192000D01*
X8030000Y-16198000D01*
X8063000Y-16206000D01*
X8096000Y-16216000D01*
X8128000Y-16227000D01*
X8159000Y-16240000D01*
X8190000Y-16255000D01*
X8220000Y-16271000D01*
X8249000Y-16289000D01*
X8277000Y-16308000D01*
X8304000Y-16329000D01*
X8330000Y-16351000D01*
X8355000Y-16374000D01*
X8378000Y-16399000D01*
X8400000Y-16425000D01*
X8421000Y-16452000D01*
X8440000Y-16480000D01*
X8458000Y-16509000D01*
X8474000Y-16539000D01*
X8489000Y-16570000D01*
X8502000Y-16601000D01*
X8513000Y-16633000D01*
X8523000Y-16666000D01*
X8531000Y-16699000D01*
X8537000Y-16732000D01*
X8541000Y-16766000D01*
X8544000Y-16800000D01*
X8545000Y-16834000D01*
X8544000Y-16868000D01*
X8541000Y-16902000D01*
X8537000Y-16936000D01*
X8531000Y-16969000D01*
X8523000Y-17002000D01*
X8513000Y-17035000D01*
X8502000Y-17067000D01*
X8489000Y-17098000D01*
X8474000Y-17129000D01*
X8458000Y-17159000D01*
X8440000Y-17188000D01*
X8421000Y-17216000D01*
X8400000Y-17243000D01*
X8378000Y-17269000D01*
X8355000Y-17294000D01*
X8330000Y-17317000D01*
X8304000Y-17339000D01*
X8277000Y-17360000D01*
X8249000Y-17379000D01*
X8220000Y-17397000D01*
X8190000Y-17413000D01*
X8159000Y-17428000D01*
X8128000Y-17441000D01*
X8096000Y-17452000D01*
X8063000Y-17462000D01*
X8030000Y-17470000D01*
X7997000Y-17476000D01*
X7963000Y-17480000D01*
X7929000Y-17483000D01*
X7895000Y-17484000D01*
X7295000Y-17484000D01*
X7261000Y-17483000D01*
X7227000Y-17480000D01*
X7193000Y-17476000D01*
X7160000Y-17470000D01*
X7127000Y-17462000D01*
X7094000Y-17452000D01*
X7062000Y-17441000D01*
X7031000Y-17428000D01*
X7000000Y-17413000D01*
X6970000Y-17397000D01*
X6941000Y-17379000D01*
X6913000Y-17360000D01*
X6886000Y-17339000D01*
X6860000Y-17317000D01*
X6835000Y-17294000D01*
X6812000Y-17269000D01*
X6790000Y-17243000D01*
X6769000Y-17216000D01*
X6750000Y-17188000D01*
X6732000Y-17159000D01*
X6716000Y-17129000D01*
X6701000Y-17098000D01*
X6688000Y-17067000D01*
X6677000Y-17035000D01*
X6667000Y-17002000D01*
X6659000Y-16969000D01*
X6653000Y-16936000D01*
X6649000Y-16902000D01*
X6646000Y-16868000D01*
X6645000Y-16834000D01*
X6646000Y-16800000D01*
X6649000Y-16766000D01*
X6653000Y-16732000D01*
X6659000Y-16699000D01*
X6667000Y-16666000D01*
X6677000Y-16633000D01*
X6688000Y-16601000D01*
X6701000Y-16570000D01*
X6716000Y-16539000D01*
X6732000Y-16509000D01*
X6750000Y-16480000D01*
X6769000Y-16452000D01*
X6790000Y-16425000D01*
X6812000Y-16399000D01*
X6835000Y-16374000D01*
X6860000Y-16351000D01*
X6886000Y-16329000D01*
X6913000Y-16308000D01*
X6941000Y-16289000D01*
X6970000Y-16271000D01*
X7000000Y-16255000D01*
X7031000Y-16240000D01*
X7062000Y-16227000D01*
X7094000Y-16216000D01*
X7127000Y-16206000D01*
X7160000Y-16198000D01*
X7193000Y-16192000D01*
X7227000Y-16188000D01*
X7261000Y-16185000D01*
X7295000Y-16184000D01*
X7895000Y-16184000D01*
X7929000Y-16185000D01*
G36*
X7929000Y-16185000D02*
G01*
X7963000Y-16188000D01*
X7997000Y-16192000D01*
X8030000Y-16198000D01*
X8063000Y-16206000D01*
X8096000Y-16216000D01*
X8128000Y-16227000D01*
X8159000Y-16240000D01*
X8190000Y-16255000D01*
X8220000Y-16271000D01*
X8249000Y-16289000D01*
X8277000Y-16308000D01*
X8304000Y-16329000D01*
X8330000Y-16351000D01*
X8355000Y-16374000D01*
X8378000Y-16399000D01*
X8400000Y-16425000D01*
X8421000Y-16452000D01*
X8440000Y-16480000D01*
X8458000Y-16509000D01*
X8474000Y-16539000D01*
X8489000Y-16570000D01*
X8502000Y-16601000D01*
X8513000Y-16633000D01*
X8523000Y-16666000D01*
X8531000Y-16699000D01*
X8537000Y-16732000D01*
X8541000Y-16766000D01*
X8544000Y-16800000D01*
X8545000Y-16834000D01*
X8544000Y-16868000D01*
X8541000Y-16902000D01*
X8537000Y-16936000D01*
X8531000Y-16969000D01*
X8523000Y-17002000D01*
X8513000Y-17035000D01*
X8502000Y-17067000D01*
X8489000Y-17098000D01*
X8474000Y-17129000D01*
X8458000Y-17159000D01*
X8440000Y-17188000D01*
X8421000Y-17216000D01*
X8400000Y-17243000D01*
X8378000Y-17269000D01*
X8355000Y-17294000D01*
X8330000Y-17317000D01*
X8304000Y-17339000D01*
X8277000Y-17360000D01*
X8249000Y-17379000D01*
X8220000Y-17397000D01*
X8190000Y-17413000D01*
X8159000Y-17428000D01*
X8128000Y-17441000D01*
X8096000Y-17452000D01*
X8063000Y-17462000D01*
X8030000Y-17470000D01*
X7997000Y-17476000D01*
X7963000Y-17480000D01*
X7929000Y-17483000D01*
X7895000Y-17484000D01*
X7295000Y-17484000D01*
X7261000Y-17483000D01*
X7227000Y-17480000D01*
X7193000Y-17476000D01*
X7160000Y-17470000D01*
X7127000Y-17462000D01*
X7094000Y-17452000D01*
X7062000Y-17441000D01*
X7031000Y-17428000D01*
X7000000Y-17413000D01*
X6970000Y-17397000D01*
X6941000Y-17379000D01*
X6913000Y-17360000D01*
X6886000Y-17339000D01*
X6860000Y-17317000D01*
X6835000Y-17294000D01*
X6812000Y-17269000D01*
X6790000Y-17243000D01*
X6769000Y-17216000D01*
X6750000Y-17188000D01*
X6732000Y-17159000D01*
X6716000Y-17129000D01*
X6701000Y-17098000D01*
X6688000Y-17067000D01*
X6677000Y-17035000D01*
X6667000Y-17002000D01*
X6659000Y-16969000D01*
X6653000Y-16936000D01*
X6649000Y-16902000D01*
X6646000Y-16868000D01*
X6645000Y-16834000D01*
X6646000Y-16800000D01*
X6649000Y-16766000D01*
X6653000Y-16732000D01*
X6659000Y-16699000D01*
X6667000Y-16666000D01*
X6677000Y-16633000D01*
X6688000Y-16601000D01*
X6701000Y-16570000D01*
X6716000Y-16539000D01*
X6732000Y-16509000D01*
X6750000Y-16480000D01*
X6769000Y-16452000D01*
X6790000Y-16425000D01*
X6812000Y-16399000D01*
X6835000Y-16374000D01*
X6860000Y-16351000D01*
X6886000Y-16329000D01*
X6913000Y-16308000D01*
X6941000Y-16289000D01*
X6970000Y-16271000D01*
X7000000Y-16255000D01*
X7031000Y-16240000D01*
X7062000Y-16227000D01*
X7094000Y-16216000D01*
X7127000Y-16206000D01*
X7160000Y-16198000D01*
X7193000Y-16192000D01*
X7227000Y-16188000D01*
X7261000Y-16185000D01*
X7295000Y-16184000D01*
X7895000Y-16184000D01*
X7929000Y-16185000D01*
G37*
%TD*%
D11*
%TO.C,R13*%
X133080000Y-41330000D03*
D12*
X117840000Y-41330000D03*
%TD*%
D13*
%TO.C,R10*%
X94940000Y-68480000D03*
X94940000Y-81180000D03*
%TD*%
D14*
%TO.C,Q6*%
X103440000Y-86790000D03*
D15*
X103440000Y-89330000D03*
X103440000Y-91870000D03*
%TD*%
D16*
%TO.C,U1*%
X77610000Y-43767500D03*
D17*
X75070000Y-43767500D03*
X72530000Y-43767500D03*
X69990000Y-43767500D03*
X69990000Y-51707500D03*
X72530000Y-51707500D03*
X75070000Y-51707500D03*
X77610000Y-51707500D03*
%TD*%
D14*
%TO.C,Q5*%
X103440000Y-83790000D03*
D15*
X103440000Y-81250000D03*
X103440000Y-78710000D03*
%TD*%
D18*
%TO.C,M3*%
X170000000Y-95000000D03*
%TD*%
D13*
%TO.C,R1*%
X30700000Y-45150000D03*
X20540000Y-45150000D03*
%TD*%
D19*
%TO.C,TP5*%
X62425000Y-51232500D03*
%TD*%
D20*
%TO.C,D1*%
X89440000Y-33850000D03*
D21*
X89440000Y-44010000D03*
%TD*%
D13*
%TO.C,R3*%
X17415000Y-14444000D03*
X27575000Y-14444000D03*
%TD*%
%TO.C,C3*%
X37745000Y-7390000D03*
X37745000Y-12390000D03*
%TD*%
D14*
%TO.C,Q3*%
X101790000Y-32100000D03*
D15*
X101790000Y-29560000D03*
X101790000Y-27020000D03*
%TD*%
D22*
%TO.C,SW1*%
X46750000Y-50470000D03*
D13*
X49290000Y-50470000D03*
X51830000Y-50470000D03*
%TD*%
D11*
%TO.C,R7*%
X77810000Y-39557500D03*
D12*
X62570000Y-39557500D03*
%TD*%
D23*
%TO.C,C2*%
X78600000Y-89930000D03*
X78600000Y-92430000D03*
%TD*%
D19*
%TO.C,TP8*%
X17065000Y-4970000D03*
%TD*%
%TO.C,TP9*%
X23065000Y-4970000D03*
%TD*%
D11*
%TO.C,R8*%
X77810000Y-55807500D03*
D12*
X62570000Y-55807500D03*
%TD*%
D11*
%TO.C,R11*%
X110580000Y-71700000D03*
D12*
X110580000Y-86940000D03*
%TD*%
D18*
%TO.C,M3*%
X170000000Y-10000000D03*
%TD*%
D13*
%TO.C,*%
X54410000Y-91110000D03*
%TD*%
D18*
%TO.C,M3*%
X5000000Y-50000000D03*
%TD*%
D24*
%TO.C,J1*%
X4890000Y-39180076D03*
X12390000Y-39180076D03*
D25*
X8990000Y-40680200D03*
X14290002Y-36430018D03*
X14290002Y-41930017D03*
%TD*%
D13*
%TO.C,R6*%
X75090000Y-60707500D03*
X62390000Y-60707500D03*
%TD*%
D19*
%TO.C,TP1*%
X20540000Y-33260000D03*
%TD*%
%TO.C,TP7*%
X165270000Y-65040000D03*
%TD*%
D11*
%TO.C,R14*%
X118240000Y-86910000D03*
D12*
X118240000Y-71670000D03*
%TD*%
D13*
%TO.C,*%
X54410000Y-93650000D03*
%TD*%
D14*
%TO.C,Q4*%
X101790000Y-35100000D03*
D15*
X101790000Y-37640000D03*
X101790000Y-40180000D03*
%TD*%
D13*
%TO.C,RV3*%
X68150000Y-91170000D03*
X70690000Y-91170000D03*
X73230000Y-91170000D03*
%TD*%
D23*
%TO.C,C6*%
X116040000Y-93690000D03*
X111040000Y-93690000D03*
%TD*%
D26*
%TO.C,LS1*%
X168840000Y-55390000D03*
X168840000Y-50390000D03*
%TD*%
D11*
%TO.C,R4*%
X15460000Y-50150000D03*
D12*
X30700000Y-50150000D03*
%TD*%
D23*
%TO.C,C1*%
X44430000Y-38150000D03*
X39430000Y-38150000D03*
%TD*%
D13*
%TO.C,Custom Development Area*%
X3610000Y-58090000D03*
X3610000Y-60630000D03*
X3610000Y-63170000D03*
X3610000Y-65710000D03*
X3610000Y-68250000D03*
X3610000Y-75870000D03*
X3610000Y-78410000D03*
X3610000Y-80950000D03*
X3610000Y-83490000D03*
X3610000Y-86030000D03*
X3610000Y-91110000D03*
X3610000Y-93650000D03*
X6150000Y-58090000D03*
X6150000Y-60630000D03*
X6150000Y-63170000D03*
X6150000Y-65710000D03*
X6150000Y-68250000D03*
X6150000Y-75870000D03*
X6150000Y-78410000D03*
X6150000Y-80950000D03*
X6150000Y-83490000D03*
X6150000Y-86030000D03*
X6150000Y-91110000D03*
X6150000Y-93650000D03*
X8690000Y-58090000D03*
X8690000Y-60630000D03*
X8690000Y-63170000D03*
X8690000Y-65710000D03*
X8690000Y-68250000D03*
X8690000Y-75870000D03*
X8690000Y-78410000D03*
X8690000Y-80950000D03*
X8690000Y-83490000D03*
X8690000Y-86030000D03*
X8690000Y-91110000D03*
X8690000Y-93650000D03*
X11230000Y-58090000D03*
X11230000Y-60630000D03*
X11230000Y-63170000D03*
X11230000Y-65710000D03*
X11230000Y-68250000D03*
X11230000Y-75870000D03*
X11230000Y-78410000D03*
X11230000Y-80950000D03*
X11230000Y-83490000D03*
X11230000Y-86030000D03*
X11230000Y-91110000D03*
X11230000Y-93650000D03*
X13770000Y-58090000D03*
X13770000Y-60630000D03*
X13770000Y-63170000D03*
X13770000Y-65710000D03*
X13770000Y-68250000D03*
X13770000Y-75870000D03*
X13770000Y-78410000D03*
X13770000Y-80950000D03*
X13770000Y-83490000D03*
X13770000Y-86030000D03*
X13770000Y-91110000D03*
X13770000Y-93650000D03*
X16310000Y-58070000D03*
X16310000Y-60610000D03*
X16310000Y-63150000D03*
X16310000Y-65690000D03*
X16310000Y-68230000D03*
X16310000Y-75870000D03*
X16310000Y-78410000D03*
X16310000Y-80950000D03*
X16310000Y-83490000D03*
X16310000Y-86030000D03*
X16310000Y-91110000D03*
X16310000Y-93650000D03*
X18850000Y-58070000D03*
X18850000Y-60610000D03*
X18850000Y-63150000D03*
X18850000Y-65690000D03*
X18850000Y-68230000D03*
X18850000Y-75870000D03*
X18850000Y-78410000D03*
X18850000Y-80950000D03*
X18850000Y-83490000D03*
X18850000Y-86030000D03*
X18850000Y-91110000D03*
X18850000Y-93650000D03*
X21390000Y-58070000D03*
X21390000Y-60610000D03*
X21390000Y-63150000D03*
X21390000Y-65690000D03*
X21390000Y-68230000D03*
X21390000Y-75870000D03*
X21390000Y-78410000D03*
X21390000Y-80950000D03*
X21390000Y-83490000D03*
X21390000Y-86030000D03*
X21390000Y-91110000D03*
X21390000Y-93650000D03*
X23930000Y-58070000D03*
X23930000Y-60610000D03*
X23930000Y-63150000D03*
X23930000Y-65690000D03*
X23930000Y-68230000D03*
X23930000Y-75870000D03*
X23930000Y-78410000D03*
X23930000Y-80950000D03*
X23930000Y-83490000D03*
X23930000Y-86030000D03*
X23930000Y-91110000D03*
X23930000Y-93650000D03*
X26470000Y-58070000D03*
X26470000Y-60610000D03*
X26470000Y-63150000D03*
X26470000Y-65690000D03*
X26470000Y-68230000D03*
X26470000Y-75870000D03*
X26470000Y-78410000D03*
X26470000Y-80950000D03*
X26470000Y-83490000D03*
X26470000Y-86030000D03*
X26470000Y-91110000D03*
X26470000Y-93650000D03*
X28960000Y-58070000D03*
X28960000Y-60610000D03*
X28960000Y-63150000D03*
X28960000Y-65690000D03*
X28960000Y-68230000D03*
X29010000Y-75870000D03*
X29010000Y-78410000D03*
X29010000Y-80950000D03*
X29010000Y-83490000D03*
X29010000Y-86030000D03*
X29010000Y-91110000D03*
X29010000Y-93650000D03*
X31500000Y-58070000D03*
X31500000Y-60610000D03*
X31500000Y-63150000D03*
X31500000Y-65690000D03*
X31500000Y-68230000D03*
X31550000Y-75870000D03*
X31550000Y-78410000D03*
X31550000Y-80950000D03*
X31550000Y-83490000D03*
X31550000Y-86030000D03*
X31550000Y-91110000D03*
X31550000Y-93650000D03*
X34040000Y-58070000D03*
X34040000Y-60610000D03*
X34040000Y-63150000D03*
X34040000Y-65690000D03*
X34040000Y-68230000D03*
X34090000Y-75870000D03*
X34090000Y-78410000D03*
X34090000Y-80950000D03*
X34090000Y-83490000D03*
X34090000Y-86030000D03*
X34090000Y-91110000D03*
X34090000Y-93650000D03*
X36580000Y-58070000D03*
X36580000Y-60610000D03*
X36580000Y-63150000D03*
X36580000Y-65690000D03*
X36580000Y-68230000D03*
X36630000Y-75870000D03*
X36630000Y-78410000D03*
X36630000Y-80950000D03*
X36630000Y-83490000D03*
X36630000Y-86030000D03*
X36630000Y-91110000D03*
X36630000Y-93650000D03*
X39120000Y-58070000D03*
X39120000Y-60610000D03*
X39120000Y-63150000D03*
X39120000Y-65690000D03*
X39120000Y-68230000D03*
X39170000Y-75870000D03*
X39170000Y-78410000D03*
X39170000Y-80950000D03*
X39170000Y-83490000D03*
X39170000Y-86030000D03*
X39170000Y-91110000D03*
X39170000Y-93650000D03*
X41660000Y-58050000D03*
X41660000Y-60590000D03*
X41660000Y-63130000D03*
X41660000Y-65670000D03*
X41660000Y-68210000D03*
X41710000Y-75870000D03*
X41710000Y-78410000D03*
X41710000Y-80950000D03*
X41710000Y-83490000D03*
X41710000Y-86030000D03*
X41710000Y-91110000D03*
X41710000Y-93650000D03*
X44200000Y-58050000D03*
X44200000Y-60590000D03*
X44200000Y-63130000D03*
X44200000Y-65670000D03*
X44200000Y-68210000D03*
X44250000Y-75870000D03*
X44250000Y-78410000D03*
X44250000Y-80950000D03*
X44250000Y-83490000D03*
X44250000Y-86030000D03*
X44250000Y-91110000D03*
X44250000Y-93650000D03*
X46740000Y-58050000D03*
X46740000Y-60590000D03*
X46740000Y-63130000D03*
X46740000Y-65670000D03*
X46740000Y-68210000D03*
X46790000Y-75870000D03*
X46790000Y-78410000D03*
X46790000Y-80950000D03*
X46790000Y-83490000D03*
X46790000Y-86030000D03*
X46790000Y-91110000D03*
X46790000Y-93650000D03*
X49280000Y-58050000D03*
X49280000Y-60590000D03*
X49280000Y-63130000D03*
X49280000Y-65670000D03*
X49280000Y-68210000D03*
X49330000Y-75870000D03*
X49330000Y-78410000D03*
X49330000Y-80950000D03*
X49330000Y-83490000D03*
X49330000Y-86030000D03*
X49330000Y-91110000D03*
X49330000Y-93650000D03*
X51820000Y-58050000D03*
X51820000Y-60590000D03*
X51820000Y-63130000D03*
X51820000Y-65670000D03*
X51820000Y-68210000D03*
X51870000Y-75870000D03*
X51870000Y-78410000D03*
X51870000Y-80950000D03*
X51870000Y-83490000D03*
X51870000Y-86030000D03*
X51870000Y-91110000D03*
X51870000Y-93650000D03*
%TD*%
D19*
%TO.C,TP2*%
X44430000Y-33150000D03*
%TD*%
D13*
%TO.C,RV2*%
X50520000Y-40700000D03*
X50520000Y-38160000D03*
X50520000Y-35620000D03*
%TD*%
%TO.C,C9*%
X158420000Y-39390000D03*
X163420000Y-39390000D03*
%TD*%
%TO.C,*%
X51820000Y-55510000D03*
%TD*%
D23*
%TO.C,C5*%
X123240000Y-47880000D03*
X118240000Y-47880000D03*
%TD*%
D13*
%TO.C,R2*%
X17415000Y-10394000D03*
X27575000Y-10394000D03*
%TD*%
D19*
%TO.C,TP3*%
X61410000Y-91190000D03*
%TD*%
D13*
%TO.C,RV1*%
X33240000Y-38140000D03*
X30700000Y-38140000D03*
X28160000Y-38140000D03*
%TD*%
D22*
%TO.C,L1*%
X144408800Y-39380000D03*
D13*
X150200000Y-39380000D03*
%TD*%
D27*
%TO.C,U2*%
X67020000Y-83350000D03*
D17*
X69560000Y-83350000D03*
X72100000Y-83350000D03*
X74640000Y-83350000D03*
X74640000Y-75410000D03*
X72100000Y-75410000D03*
X69560000Y-75410000D03*
X69560000Y-75410000D03*
X67020000Y-75410000D03*
%TD*%
D14*
%TO.C,Q2*%
X94940000Y-91867500D03*
D15*
X94940000Y-89327500D03*
X94940000Y-86787500D03*
%TD*%
D19*
%TO.C,TP6*%
X128340000Y-54080000D03*
%TD*%
D14*
%TO.C,Q1*%
X89740000Y-53280000D03*
D15*
X89740000Y-50740000D03*
X89740000Y-48200000D03*
%TD*%
D13*
%TO.C,R5*%
X75090000Y-34607500D03*
X62390000Y-34607500D03*
%TD*%
D11*
%TO.C,R12*%
X110640000Y-45950000D03*
D12*
X110640000Y-30710000D03*
%TD*%
D28*
%TO.C,Q7*%
X108100000Y-54430000D03*
D29*
X110640000Y-54430000D03*
X113180000Y-54430000D03*
%TD*%
D28*
%TO.C,Q8*%
X113180000Y-63327500D03*
D29*
X110640000Y-63327500D03*
X108100000Y-63327500D03*
%TD*%
D23*
%TO.C,C4*%
X39430000Y-45150000D03*
X44430000Y-45150000D03*
%TD*%
D19*
%TO.C,TP4*%
X62425000Y-43932500D03*
%TD*%
D11*
%TO.C,C7*%
X118080000Y-31280000D03*
X133080000Y-31280000D03*
%TD*%
D13*
%TO.C,R9*%
X95440000Y-33830000D03*
X95440000Y-46530000D03*
%TD*%
D11*
%TO.C,C8*%
X153080000Y-49160000D03*
X153080000Y-71660000D03*
%TD*%
%LPD*%
M02*
