%TF.GenerationSoftware,KiCad,Pcbnew,9.0.4*%
%TF.CreationDate,2025-12-01T10:50:38-05:00*%
%TF.ProjectId,Class D Amplifier V2,436c6173-7320-4442-9041-6d706c696669,rev?*%
%TF.SameCoordinates,Original*%
%TF.FileFunction,Copper,L1,Top*%
%TF.FilePolarity,Positive*%
%FSLAX46Y46*%
G04 Gerber Fmt 4.6, Leading zero omitted, Abs format (unit mm)*
G04 Created by KiCad (PCBNEW 9.0.4) date 2025-12-01 10:50:38*
%MOMM*%
%LPD*%
G01*
G04 APERTURE LIST*
G04 Aperture macros list*
%AMFreePoly0*
4,1,237,0.029172,0.853997,0.029356,0.853987,0.057356,0.851987,0.057683,0.851953,0.086683,0.847953,0.086879,0.847922,0.114879,0.842922,0.115213,0.842851,0.143213,0.835851,0.143374,0.835808,0.171374,0.827808,0.171737,0.827689,0.198737,0.817689,0.198886,0.817630,0.225886,0.806630,0.226095,0.806540,0.252095,0.794540,0.252443,0.794363,0.277443,0.780363,0.277572,0.780287,
0.302572,0.765287,0.302855,0.765105,0.325855,0.749105,0.326082,0.748938,0.349082,0.730938,0.371166,0.712870,0.371448,0.712621,0.392448,0.692621,0.392621,0.692448,0.412621,0.671448,0.412870,0.671166,0.430938,0.649082,0.448938,0.626082,0.449105,0.625855,0.465105,0.602855,0.465287,0.602572,0.480287,0.577572,0.480363,0.577443,0.494363,0.552443,0.494540,0.552095,
0.506540,0.526095,0.506630,0.525886,0.517630,0.498886,0.517689,0.498737,0.527689,0.471737,0.527808,0.471374,0.535808,0.443374,0.535851,0.443213,0.542851,0.415213,0.542922,0.414879,0.547922,0.386879,0.547953,0.386683,0.551953,0.357683,0.551987,0.357356,0.553987,0.329356,0.553997,0.329172,0.554997,0.300172,0.555000,0.300000,0.555000,-0.300000,0.554997,-0.300172,
0.553997,-0.329172,0.553987,-0.329356,0.551987,-0.357356,0.551953,-0.357683,0.547953,-0.386683,0.547922,-0.386879,0.542922,-0.414879,0.542851,-0.415213,0.535851,-0.443213,0.535808,-0.443374,0.527808,-0.471374,0.527689,-0.471737,0.517689,-0.498737,0.517630,-0.498886,0.506630,-0.525886,0.506540,-0.526095,0.494540,-0.552095,0.494363,-0.552443,0.480363,-0.577443,0.480287,-0.577572,
0.465287,-0.602572,0.465105,-0.602855,0.449105,-0.625855,0.448938,-0.626082,0.430938,-0.649082,0.412870,-0.671166,0.412621,-0.671448,0.392621,-0.692448,0.392448,-0.692621,0.371448,-0.712621,0.371166,-0.712870,0.349082,-0.730938,0.326082,-0.748938,0.325855,-0.749105,0.302855,-0.765105,0.302572,-0.765287,0.277572,-0.780287,0.277443,-0.780363,0.252443,-0.794363,0.252095,-0.794540,
0.226095,-0.806540,0.225886,-0.806630,0.198886,-0.817630,0.198737,-0.817689,0.171737,-0.827689,0.171374,-0.827808,0.143374,-0.835808,0.143213,-0.835851,0.115213,-0.842851,0.114879,-0.842922,0.086879,-0.847922,0.086683,-0.847953,0.057683,-0.851953,0.057356,-0.851987,0.029356,-0.853987,0.029172,-0.853997,0.000172,-0.854997,-0.000172,-0.854997,-0.029172,-0.853997,-0.029356,-0.853987,
-0.057356,-0.851987,-0.057683,-0.851953,-0.086683,-0.847953,-0.086879,-0.847922,-0.114879,-0.842922,-0.115213,-0.842851,-0.143213,-0.835851,-0.143374,-0.835808,-0.171374,-0.827808,-0.171737,-0.827689,-0.198737,-0.817689,-0.198886,-0.817630,-0.225886,-0.806630,-0.226095,-0.806540,-0.252095,-0.794540,-0.252443,-0.794363,-0.277443,-0.780363,-0.277572,-0.780287,-0.302572,-0.765287,-0.302855,-0.765105,
-0.325855,-0.749105,-0.326082,-0.748938,-0.349082,-0.730938,-0.371166,-0.712870,-0.371448,-0.712621,-0.392448,-0.692621,-0.392621,-0.692448,-0.412621,-0.671448,-0.412870,-0.671166,-0.430938,-0.649082,-0.448938,-0.626082,-0.449105,-0.625855,-0.465105,-0.602855,-0.465287,-0.602572,-0.480287,-0.577572,-0.480363,-0.577443,-0.494363,-0.552443,-0.494540,-0.552095,-0.506540,-0.526095,-0.506630,-0.525886,
-0.517630,-0.498886,-0.517689,-0.498737,-0.527689,-0.471737,-0.527808,-0.471374,-0.535808,-0.443374,-0.535851,-0.443213,-0.542851,-0.415213,-0.542922,-0.414879,-0.547922,-0.386879,-0.547953,-0.386683,-0.551953,-0.357683,-0.551987,-0.357356,-0.553987,-0.329356,-0.553997,-0.329172,-0.554997,-0.300172,-0.555000,-0.300000,-0.555000,0.300000,-0.554997,0.300172,-0.553997,0.329172,-0.553987,0.329356,
-0.551987,0.357356,-0.551953,0.357683,-0.547953,0.386683,-0.547922,0.386879,-0.542922,0.414879,-0.542851,0.415213,-0.535851,0.443213,-0.535808,0.443374,-0.527808,0.471374,-0.527689,0.471737,-0.517689,0.498737,-0.517630,0.498886,-0.506630,0.525886,-0.506540,0.526095,-0.494540,0.552095,-0.494363,0.552443,-0.480363,0.577443,-0.480287,0.577572,-0.465287,0.602572,-0.465105,0.602855,
-0.449105,0.625855,-0.448938,0.626082,-0.430938,0.649082,-0.412870,0.671166,-0.412621,0.671448,-0.392621,0.692448,-0.392448,0.692621,-0.371448,0.712621,-0.371166,0.712870,-0.349082,0.730938,-0.326082,0.748938,-0.325855,0.749105,-0.302855,0.765105,-0.302572,0.765287,-0.277572,0.780287,-0.277443,0.780363,-0.252443,0.794363,-0.252095,0.794540,-0.226095,0.806540,-0.225886,0.806630,
-0.198886,0.817630,-0.198737,0.817689,-0.171737,0.827689,-0.171374,0.827808,-0.143374,0.835808,-0.143213,0.835851,-0.115213,0.842851,-0.114879,0.842922,-0.086879,0.847922,-0.086683,0.847953,-0.057683,0.851953,-0.057356,0.851987,-0.029356,0.853987,-0.029172,0.853997,-0.000172,0.854997,0.000172,0.854997,0.029172,0.853997,0.029172,0.853997,$1*%
G04 Aperture macros list end*
%TA.AperFunction,EtchedComponent*%
%ADD10C,1.000000*%
%TD*%
%TA.AperFunction,ComponentPad*%
%ADD11C,2.400000*%
%TD*%
%TA.AperFunction,ComponentPad*%
%ADD12O,2.400000X2.400000*%
%TD*%
%TA.AperFunction,ComponentPad*%
%ADD13C,2.000000*%
%TD*%
%TA.AperFunction,ComponentPad*%
%ADD14R,1.500000X1.500000*%
%TD*%
%TA.AperFunction,ComponentPad*%
%ADD15C,1.500000*%
%TD*%
%TA.AperFunction,ComponentPad*%
%ADD16C,2.800000*%
%TD*%
%TA.AperFunction,ComponentPad*%
%ADD17R,2.200000X2.200000*%
%TD*%
%TA.AperFunction,ComponentPad*%
%ADD18O,2.200000X2.200000*%
%TD*%
%TA.AperFunction,ComponentPad*%
%ADD19R,2.000000X2.000000*%
%TD*%
%TA.AperFunction,ComponentPad*%
%ADD20C,1.600000*%
%TD*%
%TA.AperFunction,SMDPad,CuDef*%
%ADD21R,1.200000X0.700000*%
%TD*%
%TA.AperFunction,SMDPad,CuDef*%
%ADD22R,1.200000X0.760000*%
%TD*%
%TA.AperFunction,SMDPad,CuDef*%
%ADD23R,1.200000X0.800000*%
%TD*%
%TA.AperFunction,ComponentPad*%
%ADD24FreePoly0,270.000000*%
%TD*%
%TA.AperFunction,ComponentPad*%
%ADD25O,2.500000X2.000000*%
%TD*%
%TA.AperFunction,ComponentPad*%
%ADD26C,2.500000*%
%TD*%
%TA.AperFunction,ComponentPad*%
%ADD27R,1.905000X2.000000*%
%TD*%
%TA.AperFunction,ComponentPad*%
%ADD28O,1.905000X2.000000*%
%TD*%
%TA.AperFunction,Conductor*%
%ADD29C,0.200000*%
%TD*%
%TA.AperFunction,Conductor*%
%ADD30C,1.200000*%
%TD*%
%TA.AperFunction,Conductor*%
%ADD31C,0.700000*%
%TD*%
%TA.AperFunction,Conductor*%
%ADD32C,0.240000*%
%TD*%
G04 APERTURE END LIST*
D10*
%TO.C,Custom Development Area*%
X3610000Y-59090000D02*
X3610000Y-59630000D01*
X3610000Y-61630000D02*
X3610000Y-62170000D01*
X3610000Y-64170000D02*
X3610000Y-64710000D01*
X3610000Y-66710000D02*
X3610000Y-67250000D01*
X3610000Y-76870000D02*
X3610000Y-77410000D01*
X3610000Y-79410000D02*
X3610000Y-79950000D01*
X3610000Y-81950000D02*
X3610000Y-82490000D01*
X3610000Y-84490000D02*
X3610000Y-85030000D01*
X4610000Y-91110000D02*
X5150000Y-91110000D01*
X4610000Y-93650000D02*
X5150000Y-93650000D01*
X4610000Y-93650000D02*
X5150000Y-93650000D01*
X4610000Y-93650000D02*
X5150000Y-93650000D01*
X6150000Y-59090000D02*
X6150000Y-59630000D01*
X6150000Y-61630000D02*
X6150000Y-62170000D01*
X6150000Y-64170000D02*
X6150000Y-64710000D01*
X6150000Y-66710000D02*
X6150000Y-67250000D01*
X6150000Y-76870000D02*
X6150000Y-77410000D01*
X6150000Y-79410000D02*
X6150000Y-79950000D01*
X6150000Y-81950000D02*
X6150000Y-82490000D01*
X6150000Y-84490000D02*
X6150000Y-85030000D01*
X7150000Y-91110000D02*
X7690000Y-91110000D01*
X7150000Y-93650000D02*
X7690000Y-93650000D01*
X7150000Y-93650000D02*
X7690000Y-93650000D01*
X7150000Y-93650000D02*
X7690000Y-93650000D01*
X8690000Y-59090000D02*
X8690000Y-59630000D01*
X8690000Y-61630000D02*
X8690000Y-62170000D01*
X8690000Y-64170000D02*
X8690000Y-64710000D01*
X8690000Y-66710000D02*
X8690000Y-67250000D01*
X8690000Y-76870000D02*
X8690000Y-77410000D01*
X8690000Y-79410000D02*
X8690000Y-79950000D01*
X8690000Y-81950000D02*
X8690000Y-82490000D01*
X8690000Y-84490000D02*
X8690000Y-85030000D01*
X9690000Y-91110000D02*
X10230000Y-91110000D01*
X9690000Y-93650000D02*
X10230000Y-93650000D01*
X9690000Y-93650000D02*
X10230000Y-93650000D01*
X9690000Y-93650000D02*
X10230000Y-93650000D01*
X11230000Y-59090000D02*
X11230000Y-59630000D01*
X11230000Y-61630000D02*
X11230000Y-62170000D01*
X11230000Y-64170000D02*
X11230000Y-64710000D01*
X11230000Y-66710000D02*
X11230000Y-67250000D01*
X11230000Y-76870000D02*
X11230000Y-77410000D01*
X11230000Y-79410000D02*
X11230000Y-79950000D01*
X11230000Y-81950000D02*
X11230000Y-82490000D01*
X11230000Y-84490000D02*
X11230000Y-85030000D01*
X12230000Y-91110000D02*
X12770000Y-91110000D01*
X12230000Y-93650000D02*
X12770000Y-93650000D01*
X12230000Y-93650000D02*
X12770000Y-93650000D01*
X12230000Y-93650000D02*
X12770000Y-93650000D01*
X13770000Y-59090000D02*
X13770000Y-59630000D01*
X13770000Y-61630000D02*
X13770000Y-62170000D01*
X13770000Y-64170000D02*
X13770000Y-64710000D01*
X13770000Y-66710000D02*
X13770000Y-67250000D01*
X13770000Y-76870000D02*
X13770000Y-77410000D01*
X13770000Y-79410000D02*
X13770000Y-79950000D01*
X13770000Y-81950000D02*
X13770000Y-82490000D01*
X13770000Y-84490000D02*
X13770000Y-85030000D01*
X14770000Y-91110000D02*
X15310000Y-91110000D01*
X14770000Y-93650000D02*
X15310000Y-93650000D01*
X14770000Y-93650000D02*
X15310000Y-93650000D01*
X16310000Y-59070000D02*
X16310000Y-59610000D01*
X16310000Y-61610000D02*
X16310000Y-62150000D01*
X16310000Y-64150000D02*
X16310000Y-64690000D01*
X16310000Y-66690000D02*
X16310000Y-67230000D01*
X16310000Y-76870000D02*
X16310000Y-77410000D01*
X16310000Y-79410000D02*
X16310000Y-79950000D01*
X16310000Y-81950000D02*
X16310000Y-82490000D01*
X16310000Y-84490000D02*
X16310000Y-85030000D01*
X17310000Y-91110000D02*
X17850000Y-91110000D01*
X17310000Y-93650000D02*
X17850000Y-93650000D01*
X17310000Y-93650000D02*
X17850000Y-93650000D01*
X17310000Y-93650000D02*
X17850000Y-93650000D01*
X18850000Y-59070000D02*
X18850000Y-59610000D01*
X18850000Y-61610000D02*
X18850000Y-62150000D01*
X18850000Y-64150000D02*
X18850000Y-64690000D01*
X18850000Y-66690000D02*
X18850000Y-67230000D01*
X18850000Y-76870000D02*
X18850000Y-77410000D01*
X18850000Y-79410000D02*
X18850000Y-79950000D01*
X18850000Y-81950000D02*
X18850000Y-82490000D01*
X18850000Y-84490000D02*
X18850000Y-85030000D01*
X19850000Y-91110000D02*
X20390000Y-91110000D01*
X19850000Y-93650000D02*
X20390000Y-93650000D01*
X19850000Y-93650000D02*
X20390000Y-93650000D01*
X19850000Y-93650000D02*
X20390000Y-93650000D01*
X21390000Y-59070000D02*
X21390000Y-59610000D01*
X21390000Y-61610000D02*
X21390000Y-62150000D01*
X21390000Y-64150000D02*
X21390000Y-64690000D01*
X21390000Y-66690000D02*
X21390000Y-67230000D01*
X21390000Y-76870000D02*
X21390000Y-77410000D01*
X21390000Y-79410000D02*
X21390000Y-79950000D01*
X21390000Y-81950000D02*
X21390000Y-82490000D01*
X21390000Y-84490000D02*
X21390000Y-85030000D01*
X22390000Y-91110000D02*
X22930000Y-91110000D01*
X22390000Y-93650000D02*
X22930000Y-93650000D01*
X22390000Y-93650000D02*
X22930000Y-93650000D01*
X22390000Y-93650000D02*
X22930000Y-93650000D01*
X23930000Y-59070000D02*
X23930000Y-59610000D01*
X23930000Y-61610000D02*
X23930000Y-62150000D01*
X23930000Y-64150000D02*
X23930000Y-64690000D01*
X23930000Y-66690000D02*
X23930000Y-67230000D01*
X23930000Y-76870000D02*
X23930000Y-77410000D01*
X23930000Y-79410000D02*
X23930000Y-79950000D01*
X23930000Y-81950000D02*
X23930000Y-82490000D01*
X23930000Y-84490000D02*
X23930000Y-85030000D01*
X24930000Y-91110000D02*
X25470000Y-91110000D01*
X24930000Y-93650000D02*
X25470000Y-93650000D01*
X24930000Y-93650000D02*
X25470000Y-93650000D01*
X24930000Y-93650000D02*
X25470000Y-93650000D01*
X26470000Y-59070000D02*
X26470000Y-59610000D01*
X26470000Y-61610000D02*
X26470000Y-62150000D01*
X26470000Y-64150000D02*
X26470000Y-64690000D01*
X26470000Y-66690000D02*
X26470000Y-67230000D01*
X26470000Y-76870000D02*
X26470000Y-77410000D01*
X26470000Y-79410000D02*
X26470000Y-79950000D01*
X26470000Y-81950000D02*
X26470000Y-82490000D01*
X26470000Y-84490000D02*
X26470000Y-85030000D01*
X28010000Y-91110000D02*
X27470000Y-91110000D01*
X28010000Y-93650000D02*
X27470000Y-93650000D01*
X28010000Y-93650000D02*
X27470000Y-93650000D01*
X28960000Y-59070000D02*
X28960000Y-59610000D01*
X28960000Y-61610000D02*
X28960000Y-62150000D01*
X28960000Y-64150000D02*
X28960000Y-64690000D01*
X28960000Y-66690000D02*
X28960000Y-67230000D01*
X29010000Y-76870000D02*
X29010000Y-77410000D01*
X29010000Y-79410000D02*
X29010000Y-79950000D01*
X29010000Y-81950000D02*
X29010000Y-82490000D01*
X29010000Y-84490000D02*
X29010000Y-85030000D01*
X30010000Y-91110000D02*
X30550000Y-91110000D01*
X30010000Y-93650000D02*
X30550000Y-93650000D01*
X30010000Y-93650000D02*
X30550000Y-93650000D01*
X30010000Y-93650000D02*
X30550000Y-93650000D01*
X31500000Y-59070000D02*
X31500000Y-59610000D01*
X31500000Y-61610000D02*
X31500000Y-62150000D01*
X31500000Y-64150000D02*
X31500000Y-64690000D01*
X31500000Y-66690000D02*
X31500000Y-67230000D01*
X31550000Y-76870000D02*
X31550000Y-77410000D01*
X31550000Y-79410000D02*
X31550000Y-79950000D01*
X31550000Y-81950000D02*
X31550000Y-82490000D01*
X31550000Y-84490000D02*
X31550000Y-85030000D01*
X32550000Y-91110000D02*
X33090000Y-91110000D01*
X32550000Y-93650000D02*
X33090000Y-93650000D01*
X32550000Y-93650000D02*
X33090000Y-93650000D01*
X32550000Y-93650000D02*
X33090000Y-93650000D01*
X34040000Y-59070000D02*
X34040000Y-59610000D01*
X34040000Y-61610000D02*
X34040000Y-62150000D01*
X34040000Y-64150000D02*
X34040000Y-64690000D01*
X34040000Y-66690000D02*
X34040000Y-67230000D01*
X34090000Y-76870000D02*
X34090000Y-77410000D01*
X34090000Y-79410000D02*
X34090000Y-79950000D01*
X34090000Y-81950000D02*
X34090000Y-82490000D01*
X34090000Y-84490000D02*
X34090000Y-85030000D01*
X35090000Y-91110000D02*
X35630000Y-91110000D01*
X35090000Y-93650000D02*
X35630000Y-93650000D01*
X35090000Y-93650000D02*
X35630000Y-93650000D01*
X35090000Y-93650000D02*
X35630000Y-93650000D01*
X36580000Y-59070000D02*
X36580000Y-59610000D01*
X36580000Y-61610000D02*
X36580000Y-62150000D01*
X36580000Y-64150000D02*
X36580000Y-64690000D01*
X36580000Y-66690000D02*
X36580000Y-67230000D01*
X36630000Y-76870000D02*
X36630000Y-77410000D01*
X36630000Y-79410000D02*
X36630000Y-79950000D01*
X36630000Y-81950000D02*
X36630000Y-82490000D01*
X36630000Y-84490000D02*
X36630000Y-85030000D01*
X37630000Y-91110000D02*
X38170000Y-91110000D01*
X37630000Y-93650000D02*
X38170000Y-93650000D01*
X37630000Y-93650000D02*
X38170000Y-93650000D01*
X37630000Y-93650000D02*
X38170000Y-93650000D01*
X39120000Y-59070000D02*
X39120000Y-59610000D01*
X39120000Y-61610000D02*
X39120000Y-62150000D01*
X39120000Y-64150000D02*
X39120000Y-64690000D01*
X39120000Y-66690000D02*
X39120000Y-67230000D01*
X39170000Y-76870000D02*
X39170000Y-77410000D01*
X39170000Y-79410000D02*
X39170000Y-79950000D01*
X39170000Y-81950000D02*
X39170000Y-82490000D01*
X39170000Y-84490000D02*
X39170000Y-85030000D01*
X40170000Y-91110000D02*
X40710000Y-91110000D01*
X40170000Y-93650000D02*
X40710000Y-93650000D01*
X40170000Y-93650000D02*
X40710000Y-93650000D01*
X41660000Y-59050000D02*
X41660000Y-59590000D01*
X41660000Y-61590000D02*
X41660000Y-62130000D01*
X41660000Y-64130000D02*
X41660000Y-64670000D01*
X41660000Y-66670000D02*
X41660000Y-67210000D01*
X41710000Y-76870000D02*
X41710000Y-77410000D01*
X41710000Y-79410000D02*
X41710000Y-79950000D01*
X41710000Y-81950000D02*
X41710000Y-82490000D01*
X41710000Y-84490000D02*
X41710000Y-85030000D01*
X42710000Y-91110000D02*
X43250000Y-91110000D01*
X42710000Y-93650000D02*
X43250000Y-93650000D01*
X42710000Y-93650000D02*
X43250000Y-93650000D01*
X42710000Y-93650000D02*
X43250000Y-93650000D01*
X44200000Y-59050000D02*
X44200000Y-59590000D01*
X44200000Y-61590000D02*
X44200000Y-62130000D01*
X44200000Y-64130000D02*
X44200000Y-64670000D01*
X44200000Y-66670000D02*
X44200000Y-67210000D01*
X44250000Y-76870000D02*
X44250000Y-77410000D01*
X44250000Y-79410000D02*
X44250000Y-79950000D01*
X44250000Y-81950000D02*
X44250000Y-82490000D01*
X44250000Y-84490000D02*
X44250000Y-85030000D01*
X45250000Y-91110000D02*
X45790000Y-91110000D01*
X45250000Y-93650000D02*
X45790000Y-93650000D01*
X45250000Y-93650000D02*
X45790000Y-93650000D01*
X45250000Y-93650000D02*
X45790000Y-93650000D01*
X46740000Y-59050000D02*
X46740000Y-59590000D01*
X46740000Y-61590000D02*
X46740000Y-62130000D01*
X46740000Y-64130000D02*
X46740000Y-64670000D01*
X46740000Y-66670000D02*
X46740000Y-67210000D01*
X46790000Y-76870000D02*
X46790000Y-77410000D01*
X46790000Y-79410000D02*
X46790000Y-79950000D01*
X46790000Y-81950000D02*
X46790000Y-82490000D01*
X46790000Y-84490000D02*
X46790000Y-85030000D01*
X47790000Y-91110000D02*
X48330000Y-91110000D01*
X47790000Y-93650000D02*
X48330000Y-93650000D01*
X49280000Y-59050000D02*
X49280000Y-59590000D01*
X49280000Y-61590000D02*
X49280000Y-62130000D01*
X49280000Y-64130000D02*
X49280000Y-64670000D01*
X49280000Y-66670000D02*
X49280000Y-67210000D01*
X49330000Y-76870000D02*
X49330000Y-77410000D01*
X49330000Y-79410000D02*
X49330000Y-79950000D01*
X49330000Y-81950000D02*
X49330000Y-82490000D01*
X49330000Y-84490000D02*
X49330000Y-85030000D01*
X50330000Y-91110000D02*
X50870000Y-91110000D01*
X50330000Y-93650000D02*
X50870000Y-93650000D01*
X50330000Y-93650000D02*
X50870000Y-93650000D01*
X51820000Y-59050000D02*
X51820000Y-59590000D01*
X51820000Y-61590000D02*
X51820000Y-62130000D01*
X51820000Y-64130000D02*
X51820000Y-64670000D01*
X51820000Y-66670000D02*
X51820000Y-67210000D01*
X51870000Y-76870000D02*
X51870000Y-77410000D01*
X51870000Y-79410000D02*
X51870000Y-79950000D01*
X51870000Y-81950000D02*
X51870000Y-82490000D01*
X51870000Y-84490000D02*
X51870000Y-85030000D01*
%TD*%
D11*
%TO.P,R13,1*%
%TO.N,Net-(C5-Pad1)*%
X133080000Y-41330000D03*
D12*
%TO.P,R13,2*%
%TO.N,+5V*%
X117840000Y-41330000D03*
%TD*%
D13*
%TO.P,R10,1*%
%TO.N,+5V*%
X94940000Y-68480000D03*
%TO.P,R10,2*%
%TO.N,Net-(Q2-C)*%
X94940000Y-81180000D03*
%TD*%
D14*
%TO.P,Q6,1,E*%
%TO.N,Net-(Q5-E)*%
X103440000Y-86790000D03*
D15*
%TO.P,Q6,2,B*%
%TO.N,Net-(Q2-C)*%
X103440000Y-89330000D03*
%TO.P,Q6,3,C*%
%TO.N,GND*%
X103440000Y-91870000D03*
%TD*%
D14*
%TO.P,U1,1,OUT1*%
%TO.N,Net-(U1-OUT1)*%
X77610000Y-43767500D03*
D15*
%TO.P,U1,2,1IN-*%
%TO.N,Net-(SW1-B)*%
X75070000Y-43767500D03*
%TO.P,U1,3,1IN+*%
%TO.N,Net-(U1-1IN+)*%
X72530000Y-43767500D03*
%TO.P,U1,4,Gnd*%
%TO.N,GND*%
X69990000Y-43767500D03*
%TO.P,U1,5,2IN+*%
%TO.N,Net-(SW1-B)*%
X69990000Y-51707500D03*
%TO.P,U1,6,2IN-*%
%TO.N,Net-(U1-1IN+)*%
X72530000Y-51707500D03*
%TO.P,U1,7,OUT2*%
%TO.N,Net-(U1-OUT2)*%
X75070000Y-51707500D03*
%TO.P,U1,8,Vcc*%
%TO.N,+5V*%
X77610000Y-51707500D03*
%TD*%
D14*
%TO.P,Q5,1,E*%
%TO.N,Net-(Q5-E)*%
X103440000Y-83790000D03*
D15*
%TO.P,Q5,2,B*%
%TO.N,Net-(Q2-C)*%
X103440000Y-81250000D03*
%TO.P,Q5,3,C*%
%TO.N,+5V*%
X103440000Y-78710000D03*
%TD*%
D13*
%TO.P,R1,1*%
%TO.N,Net-(C1-Pad2)*%
X30700000Y-45150000D03*
%TO.P,R1,2*%
%TO.N,GND*%
X20540000Y-45150000D03*
%TD*%
D16*
%TO.P,TP5,1,1*%
%TO.N,Net-(U1-OUT2)*%
X62425000Y-51232500D03*
%TD*%
D17*
%TO.P,D1,1,K*%
%TO.N,Net-(D1-K)*%
X89440000Y-33850000D03*
D18*
%TO.P,D1,2,A*%
%TO.N,+5V*%
X89440000Y-44010000D03*
%TD*%
D13*
%TO.P,R3,1*%
%TO.N,Net-(J2-CC2)*%
X17415000Y-14444000D03*
%TO.P,R3,2*%
%TO.N,GND*%
X27575000Y-14444000D03*
%TD*%
%TO.P,C3,1*%
%TO.N,+5V*%
X37745000Y-7390000D03*
%TO.P,C3,2*%
%TO.N,GND*%
X37745000Y-12390000D03*
%TD*%
D14*
%TO.P,Q3,1,E*%
%TO.N,Net-(Q3-E)*%
X101790000Y-32100000D03*
D15*
%TO.P,Q3,2,B*%
%TO.N,Net-(Q1-C)*%
X101790000Y-29560000D03*
%TO.P,Q3,3,C*%
%TO.N,Net-(D1-K)*%
X101790000Y-27020000D03*
%TD*%
D19*
%TO.P,SW1,1,A*%
%TO.N,Net-(SW1-A)*%
X46750000Y-50470000D03*
D13*
%TO.P,SW1,2,B*%
%TO.N,Net-(SW1-B)*%
X49290000Y-50470000D03*
%TO.P,SW1,3,C*%
%TO.N,/Other Inputs*%
X51830000Y-50470000D03*
%TD*%
D11*
%TO.P,R7,1*%
%TO.N,Net-(Q1-B)*%
X77810000Y-39557500D03*
D12*
%TO.P,R7,2*%
%TO.N,Net-(U1-OUT1)*%
X62570000Y-39557500D03*
%TD*%
D20*
%TO.P,C2,1*%
%TO.N,Net-(U1-1IN+)*%
X78600000Y-89930000D03*
%TO.P,C2,2*%
%TO.N,GND*%
X78600000Y-92430000D03*
%TD*%
D16*
%TO.P,TP8,1,1*%
%TO.N,+5V*%
X17065000Y-4970000D03*
%TD*%
%TO.P,TP9,1,1*%
%TO.N,GND*%
X23065000Y-4970000D03*
%TD*%
D11*
%TO.P,R8,1*%
%TO.N,Net-(Q2-B)*%
X77810000Y-55807500D03*
D12*
%TO.P,R8,2*%
%TO.N,Net-(U1-OUT2)*%
X62570000Y-55807500D03*
%TD*%
D11*
%TO.P,R11,1*%
%TO.N,Net-(Q8-G)*%
X110580000Y-71700000D03*
D12*
%TO.P,R11,2*%
%TO.N,Net-(Q5-E)*%
X110580000Y-86940000D03*
%TD*%
D13*
%TO.P,,1*%
%TO.N,+5V*%
X54410000Y-91110000D03*
%TD*%
D21*
%TO.P,J2,A5,CC1*%
%TO.N,Net-(J2-CC1)*%
X7675000Y-12014000D03*
D22*
%TO.P,J2,A9,VBUS*%
%TO.N,+5V*%
X7675000Y-14034000D03*
D23*
%TO.P,J2,A12,GND*%
%TO.N,GND*%
X7675000Y-15264000D03*
D21*
%TO.P,J2,B5,CC2*%
%TO.N,Net-(J2-CC2)*%
X7675000Y-13014000D03*
D22*
%TO.P,J2,B9,VBUS*%
%TO.N,+5V*%
X7675000Y-10994000D03*
D23*
%TO.P,J2,B12,GND*%
%TO.N,GND*%
X7675000Y-9764000D03*
D24*
%TO.P,J2,S1,SHIELD*%
X7595000Y-8194000D03*
%TO.P,J2,S2*%
X7595000Y-16834000D03*
%TO.P,J2,S3*%
X3795000Y-8194000D03*
%TO.P,J2,S4*%
X3795000Y-16834000D03*
%TD*%
D25*
%TO.P,J1,1,1*%
%TO.N,GND*%
X8990000Y-40680200D03*
%TO.P,J1,2,2*%
%TO.N,Net-(J1-Pad2)*%
X14290002Y-36430018D03*
%TO.P,J1,3,3*%
X14290002Y-41930017D03*
%TD*%
D13*
%TO.P,R6,1*%
%TO.N,+5V*%
X75090000Y-60707500D03*
%TO.P,R6,2*%
%TO.N,Net-(U1-OUT2)*%
X62390000Y-60707500D03*
%TD*%
D16*
%TO.P,TP1,1,1*%
%TO.N,Net-(J1-Pad2)*%
X20540000Y-33260000D03*
%TD*%
%TO.P,TP7,1,1*%
%TO.N,Net-(C9-Pad2)*%
X165270000Y-65040000D03*
%TD*%
D11*
%TO.P,R14,1*%
%TO.N,Net-(C6-Pad1)*%
X118240000Y-86910000D03*
D12*
%TO.P,R14,2*%
%TO.N,Net-(Q7-S)*%
X118240000Y-71670000D03*
%TD*%
D13*
%TO.P,,1*%
%TO.N,GND*%
X54410000Y-93650000D03*
%TD*%
D14*
%TO.P,Q4,1,E*%
%TO.N,Net-(Q3-E)*%
X101790000Y-35100000D03*
D15*
%TO.P,Q4,2,B*%
%TO.N,Net-(Q1-C)*%
X101790000Y-37640000D03*
%TO.P,Q4,3,C*%
%TO.N,GND*%
X101790000Y-40180000D03*
%TD*%
D13*
%TO.P,RV3,1,1*%
%TO.N,Net-(U1-1IN+)*%
X68150000Y-91170000D03*
%TO.P,RV3,2,2*%
X70690000Y-91170000D03*
%TO.P,RV3,3,3*%
%TO.N,Net-(U2-Q)*%
X73230000Y-91170000D03*
%TD*%
D20*
%TO.P,C6,1*%
%TO.N,Net-(C6-Pad1)*%
X116040000Y-93690000D03*
%TO.P,C6,2*%
%TO.N,GND*%
X111040000Y-93690000D03*
%TD*%
D26*
%TO.P,LS1,1,1*%
%TO.N,GND*%
X168840000Y-55390000D03*
%TO.P,LS1,2,2*%
%TO.N,Net-(C9-Pad2)*%
X168840000Y-50390000D03*
%TD*%
D11*
%TO.P,R4,1*%
%TO.N,GND*%
X15460000Y-50150000D03*
D12*
%TO.P,R4,2*%
%TO.N,Net-(C4-Pad1)*%
X30700000Y-50150000D03*
%TD*%
D20*
%TO.P,C1,1*%
%TO.N,Net-(SW1-A)*%
X44430000Y-38150000D03*
%TO.P,C1,2*%
%TO.N,Net-(C1-Pad2)*%
X39430000Y-38150000D03*
%TD*%
D13*
%TO.P,Custom Development Area,1*%
%TO.N,N/C*%
X3610000Y-58090000D03*
X3610000Y-60630000D03*
X3610000Y-63170000D03*
X3610000Y-65710000D03*
X3610000Y-68250000D03*
X3610000Y-75870000D03*
X3610000Y-78410000D03*
X3610000Y-80950000D03*
X3610000Y-83490000D03*
X3610000Y-86030000D03*
X3610000Y-91110000D03*
X3610000Y-93650000D03*
X6150000Y-58090000D03*
X6150000Y-60630000D03*
X6150000Y-63170000D03*
X6150000Y-65710000D03*
X6150000Y-68250000D03*
X6150000Y-75870000D03*
X6150000Y-78410000D03*
X6150000Y-80950000D03*
X6150000Y-83490000D03*
X6150000Y-86030000D03*
X6150000Y-91110000D03*
X6150000Y-93650000D03*
X8690000Y-58090000D03*
X8690000Y-60630000D03*
X8690000Y-63170000D03*
X8690000Y-65710000D03*
X8690000Y-68250000D03*
X8690000Y-75870000D03*
X8690000Y-78410000D03*
X8690000Y-80950000D03*
X8690000Y-83490000D03*
X8690000Y-86030000D03*
X8690000Y-91110000D03*
X8690000Y-93650000D03*
X11230000Y-58090000D03*
X11230000Y-60630000D03*
X11230000Y-63170000D03*
X11230000Y-65710000D03*
X11230000Y-68250000D03*
X11230000Y-75870000D03*
X11230000Y-78410000D03*
X11230000Y-80950000D03*
X11230000Y-83490000D03*
X11230000Y-86030000D03*
X11230000Y-91110000D03*
X11230000Y-93650000D03*
X13770000Y-58090000D03*
X13770000Y-60630000D03*
X13770000Y-63170000D03*
X13770000Y-65710000D03*
X13770000Y-68250000D03*
X13770000Y-75870000D03*
X13770000Y-78410000D03*
X13770000Y-80950000D03*
X13770000Y-83490000D03*
X13770000Y-86030000D03*
X13770000Y-91110000D03*
X13770000Y-93650000D03*
X16310000Y-58070000D03*
X16310000Y-60610000D03*
X16310000Y-63150000D03*
X16310000Y-65690000D03*
X16310000Y-68230000D03*
X16310000Y-75870000D03*
X16310000Y-78410000D03*
X16310000Y-80950000D03*
X16310000Y-83490000D03*
X16310000Y-86030000D03*
X16310000Y-91110000D03*
X16310000Y-93650000D03*
X18850000Y-58070000D03*
X18850000Y-60610000D03*
X18850000Y-63150000D03*
X18850000Y-65690000D03*
X18850000Y-68230000D03*
X18850000Y-75870000D03*
X18850000Y-78410000D03*
X18850000Y-80950000D03*
X18850000Y-83490000D03*
X18850000Y-86030000D03*
X18850000Y-91110000D03*
X18850000Y-93650000D03*
X21390000Y-58070000D03*
X21390000Y-60610000D03*
X21390000Y-63150000D03*
X21390000Y-65690000D03*
X21390000Y-68230000D03*
X21390000Y-75870000D03*
X21390000Y-78410000D03*
X21390000Y-80950000D03*
X21390000Y-83490000D03*
X21390000Y-86030000D03*
X21390000Y-91110000D03*
X21390000Y-93650000D03*
X23930000Y-58070000D03*
X23930000Y-60610000D03*
X23930000Y-63150000D03*
X23930000Y-65690000D03*
X23930000Y-68230000D03*
X23930000Y-75870000D03*
X23930000Y-78410000D03*
X23930000Y-80950000D03*
X23930000Y-83490000D03*
X23930000Y-86030000D03*
X23930000Y-91110000D03*
X23930000Y-93650000D03*
X26470000Y-58070000D03*
X26470000Y-60610000D03*
X26470000Y-63150000D03*
X26470000Y-65690000D03*
X26470000Y-68230000D03*
X26470000Y-75870000D03*
X26470000Y-78410000D03*
X26470000Y-80950000D03*
X26470000Y-83490000D03*
X26470000Y-86030000D03*
X26470000Y-91110000D03*
X26470000Y-93650000D03*
X28960000Y-58070000D03*
X28960000Y-60610000D03*
X28960000Y-63150000D03*
X28960000Y-65690000D03*
X28960000Y-68230000D03*
X29010000Y-75870000D03*
X29010000Y-78410000D03*
X29010000Y-80950000D03*
X29010000Y-83490000D03*
X29010000Y-86030000D03*
X29010000Y-91110000D03*
X29010000Y-93650000D03*
X31500000Y-58070000D03*
X31500000Y-60610000D03*
X31500000Y-63150000D03*
X31500000Y-65690000D03*
X31500000Y-68230000D03*
X31550000Y-75870000D03*
X31550000Y-78410000D03*
X31550000Y-80950000D03*
X31550000Y-83490000D03*
X31550000Y-86030000D03*
X31550000Y-91110000D03*
X31550000Y-93650000D03*
X34040000Y-58070000D03*
X34040000Y-60610000D03*
X34040000Y-63150000D03*
X34040000Y-65690000D03*
X34040000Y-68230000D03*
X34090000Y-75870000D03*
X34090000Y-78410000D03*
X34090000Y-80950000D03*
X34090000Y-83490000D03*
X34090000Y-86030000D03*
X34090000Y-91110000D03*
X34090000Y-93650000D03*
X36580000Y-58070000D03*
X36580000Y-60610000D03*
X36580000Y-63150000D03*
X36580000Y-65690000D03*
X36580000Y-68230000D03*
X36630000Y-75870000D03*
X36630000Y-78410000D03*
X36630000Y-80950000D03*
X36630000Y-83490000D03*
X36630000Y-86030000D03*
X36630000Y-91110000D03*
X36630000Y-93650000D03*
X39120000Y-58070000D03*
X39120000Y-60610000D03*
X39120000Y-63150000D03*
X39120000Y-65690000D03*
X39120000Y-68230000D03*
X39170000Y-75870000D03*
X39170000Y-78410000D03*
X39170000Y-80950000D03*
X39170000Y-83490000D03*
X39170000Y-86030000D03*
X39170000Y-91110000D03*
X39170000Y-93650000D03*
X41660000Y-58050000D03*
X41660000Y-60590000D03*
X41660000Y-63130000D03*
X41660000Y-65670000D03*
X41660000Y-68210000D03*
X41710000Y-75870000D03*
X41710000Y-78410000D03*
X41710000Y-80950000D03*
X41710000Y-83490000D03*
X41710000Y-86030000D03*
X41710000Y-91110000D03*
X41710000Y-93650000D03*
X44200000Y-58050000D03*
X44200000Y-60590000D03*
X44200000Y-63130000D03*
X44200000Y-65670000D03*
X44200000Y-68210000D03*
X44250000Y-75870000D03*
X44250000Y-78410000D03*
X44250000Y-80950000D03*
X44250000Y-83490000D03*
X44250000Y-86030000D03*
X44250000Y-91110000D03*
X44250000Y-93650000D03*
X46740000Y-58050000D03*
X46740000Y-60590000D03*
X46740000Y-63130000D03*
X46740000Y-65670000D03*
X46740000Y-68210000D03*
X46790000Y-75870000D03*
X46790000Y-78410000D03*
X46790000Y-80950000D03*
X46790000Y-83490000D03*
X46790000Y-86030000D03*
X46790000Y-91110000D03*
X46790000Y-93650000D03*
X49280000Y-58050000D03*
X49280000Y-60590000D03*
X49280000Y-63130000D03*
X49280000Y-65670000D03*
X49280000Y-68210000D03*
X49330000Y-75870000D03*
X49330000Y-78410000D03*
X49330000Y-80950000D03*
X49330000Y-83490000D03*
X49330000Y-86030000D03*
X49330000Y-91110000D03*
X49330000Y-93650000D03*
X51820000Y-58050000D03*
X51820000Y-60590000D03*
X51820000Y-63130000D03*
X51820000Y-65670000D03*
X51820000Y-68210000D03*
X51870000Y-75870000D03*
X51870000Y-78410000D03*
X51870000Y-80950000D03*
X51870000Y-83490000D03*
X51870000Y-86030000D03*
X51870000Y-91110000D03*
X51870000Y-93650000D03*
%TD*%
D16*
%TO.P,TP2,1,1*%
%TO.N,Net-(SW1-A)*%
X44430000Y-33150000D03*
%TD*%
D13*
%TO.P,RV2,1,1*%
%TO.N,GND*%
X50520000Y-40700000D03*
%TO.P,RV2,2,2*%
%TO.N,Net-(SW1-A)*%
X50520000Y-38160000D03*
%TO.P,RV2,3,3*%
%TO.N,+5V*%
X50520000Y-35620000D03*
%TD*%
%TO.P,C9,1*%
%TO.N,Net-(C8-Pad1)*%
X158420000Y-39390000D03*
%TO.P,C9,2*%
%TO.N,Net-(C9-Pad2)*%
X163420000Y-39390000D03*
%TD*%
%TO.P,,1*%
%TO.N,/Other Inputs*%
X51820000Y-55510000D03*
%TD*%
D20*
%TO.P,C5,1*%
%TO.N,Net-(C5-Pad1)*%
X123240000Y-47880000D03*
%TO.P,C5,2*%
%TO.N,Net-(Q7-S)*%
X118240000Y-47880000D03*
%TD*%
D13*
%TO.P,R2,1*%
%TO.N,Net-(J2-CC1)*%
X17415000Y-10394000D03*
%TO.P,R2,2*%
%TO.N,GND*%
X27575000Y-10394000D03*
%TD*%
D16*
%TO.P,TP3,1,1*%
%TO.N,Net-(U1-1IN+)*%
X61410000Y-91190000D03*
%TD*%
D13*
%TO.P,RV1,1,1*%
%TO.N,Net-(C1-Pad2)*%
X33240000Y-38140000D03*
%TO.P,RV1,2,2*%
X30700000Y-38140000D03*
%TO.P,RV1,3,3*%
%TO.N,Net-(J1-Pad2)*%
X28160000Y-38140000D03*
%TD*%
D19*
%TO.P,L1,1,1*%
%TO.N,Net-(Q7-S)*%
X144408800Y-39380000D03*
D13*
%TO.P,L1,2,2*%
%TO.N,Net-(C8-Pad1)*%
X150200000Y-39380000D03*
%TD*%
D14*
%TO.P,U2,1,GND*%
%TO.N,GND*%
X67020000Y-83350000D03*
D15*
%TO.P,U2,2,TR*%
%TO.N,Net-(U1-1IN+)*%
X69560000Y-83350000D03*
%TO.P,U2,3,Q*%
%TO.N,Net-(U2-Q)*%
X72100000Y-83350000D03*
%TO.P,U2,4,R*%
%TO.N,+5V*%
X74640000Y-83350000D03*
%TO.P,U2,5,CV*%
%TO.N,unconnected-(U2-CV-Pad5)*%
X74640000Y-75410000D03*
%TO.P,U2,6,THR*%
%TO.N,Net-(U1-1IN+)*%
X72100000Y-75410000D03*
%TO.P,U2,7,DIS*%
%TO.N,unconnected-(U2-DIS-Pad7)*%
X69560000Y-75410000D03*
X69560000Y-75410000D03*
%TO.P,U2,8,VCC*%
%TO.N,+5V*%
X67020000Y-75410000D03*
%TD*%
D14*
%TO.P,Q2,1,E*%
%TO.N,GND*%
X94940000Y-91867500D03*
D15*
%TO.P,Q2,2,B*%
%TO.N,Net-(Q2-B)*%
X94940000Y-89327500D03*
%TO.P,Q2,3,C*%
%TO.N,Net-(Q2-C)*%
X94940000Y-86787500D03*
%TD*%
D16*
%TO.P,TP6,1,1*%
%TO.N,Net-(Q7-S)*%
X128340000Y-54080000D03*
%TD*%
D14*
%TO.P,Q1,1,E*%
%TO.N,GND*%
X89740000Y-53280000D03*
D15*
%TO.P,Q1,2,B*%
%TO.N,Net-(Q1-B)*%
X89740000Y-50740000D03*
%TO.P,Q1,3,C*%
%TO.N,Net-(Q1-C)*%
X89740000Y-48200000D03*
%TD*%
D13*
%TO.P,R5,1*%
%TO.N,+5V*%
X75090000Y-34607500D03*
%TO.P,R5,2*%
%TO.N,Net-(U1-OUT1)*%
X62390000Y-34607500D03*
%TD*%
D11*
%TO.P,R12,1*%
%TO.N,Net-(Q7-G)*%
X110640000Y-45950000D03*
D12*
%TO.P,R12,2*%
%TO.N,Net-(Q3-E)*%
X110640000Y-30710000D03*
%TD*%
D27*
%TO.P,Q7,1,G*%
%TO.N,Net-(Q7-G)*%
X108100000Y-54430000D03*
D28*
%TO.P,Q7,2,D*%
%TO.N,+5V*%
X110640000Y-54430000D03*
%TO.P,Q7,3,S*%
%TO.N,Net-(Q7-S)*%
X113180000Y-54430000D03*
%TD*%
D27*
%TO.P,Q8,1,G*%
%TO.N,Net-(Q8-G)*%
X113180000Y-63327500D03*
D28*
%TO.P,Q8,2,D*%
%TO.N,Net-(Q7-S)*%
X110640000Y-63327500D03*
%TO.P,Q8,3,S*%
%TO.N,GND*%
X108100000Y-63327500D03*
%TD*%
D20*
%TO.P,C4,1*%
%TO.N,Net-(C4-Pad1)*%
X39430000Y-45150000D03*
%TO.P,C4,2*%
%TO.N,Net-(SW1-A)*%
X44430000Y-45150000D03*
%TD*%
D16*
%TO.P,TP4,1,1*%
%TO.N,Net-(U1-OUT1)*%
X62425000Y-43932500D03*
%TD*%
D11*
%TO.P,C7,1*%
%TO.N,Net-(D1-K)*%
X118080000Y-31280000D03*
%TO.P,C7,2*%
%TO.N,Net-(Q7-S)*%
X133080000Y-31280000D03*
%TD*%
D13*
%TO.P,R9,1*%
%TO.N,Net-(D1-K)*%
X95440000Y-33830000D03*
%TO.P,R9,2*%
%TO.N,Net-(Q1-C)*%
X95440000Y-46530000D03*
%TD*%
D11*
%TO.P,C8,1*%
%TO.N,Net-(C8-Pad1)*%
X153080000Y-49160000D03*
%TO.P,C8,2*%
%TO.N,GND*%
X153080000Y-71660000D03*
%TD*%
D29*
%TO.N,Net-(U1-1IN+)*%
X77800001Y-89130001D02*
X78600000Y-89930000D01*
X72530000Y-51707500D02*
X72530000Y-43767500D01*
X72729999Y-89130001D02*
X77800001Y-89130001D01*
X69560000Y-77950000D02*
X69560000Y-83350000D01*
X65969000Y-88989000D02*
X65969000Y-58268500D01*
X72100000Y-75410000D02*
X69560000Y-77950000D01*
X61430000Y-91170000D02*
X61410000Y-91190000D01*
X68150000Y-91170000D02*
X61430000Y-91170000D01*
X70690000Y-91170000D02*
X72729999Y-89130001D01*
X69560000Y-90040000D02*
X70690000Y-91170000D01*
X70690000Y-91170000D02*
X68150000Y-91170000D01*
X69560000Y-83350000D02*
X69560000Y-90040000D01*
X65969000Y-58268500D02*
X72530000Y-51707500D01*
X68150000Y-91170000D02*
X65969000Y-88989000D01*
%TO.N,GND*%
X7595000Y-8194000D02*
X7595000Y-9684000D01*
X7595000Y-9684000D02*
X7675000Y-9764000D01*
X7675000Y-16754000D02*
X7595000Y-16834000D01*
X7675000Y-15264000D02*
X7675000Y-16754000D01*
%TO.N,Net-(U1-OUT1)*%
X62570000Y-39557500D02*
X62570000Y-34787500D01*
X62570000Y-34787500D02*
X62390000Y-34607500D01*
X73400000Y-39557500D02*
X77610000Y-43767500D01*
X62570000Y-39557500D02*
X73400000Y-39557500D01*
D30*
%TO.N,+5V*%
X37615000Y-7520000D02*
X46480000Y-16385000D01*
X75090000Y-54227500D02*
X75090000Y-60707500D01*
D31*
X6643000Y-10994000D02*
X6524000Y-11113000D01*
D30*
X76191000Y-61808500D02*
X76191000Y-81799000D01*
X52950000Y-7520000D02*
X89440000Y-44010000D01*
D31*
X11041000Y-10994000D02*
X17065000Y-4970000D01*
X7675000Y-10994000D02*
X14586000Y-10994000D01*
X6524000Y-11113000D02*
X6524000Y-13915000D01*
D30*
X112641000Y-35540842D02*
X112641000Y-52429000D01*
D31*
X7675000Y-10994000D02*
X11041000Y-10994000D01*
X6643000Y-14034000D02*
X7675000Y-14034000D01*
X14586000Y-10994000D02*
X18060000Y-7520000D01*
X7675000Y-10994000D02*
X6643000Y-10994000D01*
D30*
X37615000Y-7520000D02*
X84620158Y-7520000D01*
X112641000Y-52429000D02*
X110640000Y-54430000D01*
X84483446Y-7520000D02*
X37615000Y-7520000D01*
D31*
X18060000Y-7520000D02*
X37615000Y-7520000D01*
D30*
X46480000Y-16385000D02*
X46480000Y-31580000D01*
X88189000Y-45261000D02*
X88189000Y-61729000D01*
X48002500Y-7520000D02*
X75090000Y-34607500D01*
X46480000Y-31580000D02*
X50520000Y-35620000D01*
X76191000Y-81799000D02*
X74640000Y-83350000D01*
D31*
X6524000Y-13915000D02*
X6643000Y-14034000D01*
D30*
X117840000Y-41330000D02*
X117840000Y-40876554D01*
X88189000Y-61729000D02*
X94940000Y-68480000D01*
X37615000Y-7520000D02*
X48002500Y-7520000D01*
X75090000Y-60707500D02*
X76191000Y-61808500D01*
X117840000Y-40876554D02*
X84483446Y-7520000D01*
X37615000Y-7520000D02*
X52950000Y-7520000D01*
X77610000Y-51707500D02*
X75090000Y-54227500D01*
X75090000Y-60707500D02*
X67020000Y-68777500D01*
X89440000Y-44010000D02*
X88189000Y-45261000D01*
X67020000Y-68777500D02*
X67020000Y-75410000D01*
X84620158Y-7520000D02*
X112641000Y-35540842D01*
D29*
%TO.N,Net-(Q7-S)*%
X113180000Y-54430000D02*
X127990000Y-54430000D01*
X127990000Y-54430000D02*
X128340000Y-54080000D01*
X118240000Y-46120000D02*
X133080000Y-31280000D01*
X110640000Y-56970000D02*
X113180000Y-54430000D01*
X143040000Y-39380000D02*
X144408800Y-39380000D01*
X118240000Y-49370000D02*
X113180000Y-54430000D01*
X118240000Y-47880000D02*
X118240000Y-46120000D01*
X110640000Y-63327500D02*
X110640000Y-56970000D01*
X118240000Y-47880000D02*
X118240000Y-49370000D01*
X128340000Y-54080000D02*
X143040000Y-39380000D01*
%TO.N,Net-(D1-K)*%
X95440000Y-33830000D02*
X101790000Y-27480000D01*
X95420000Y-33850000D02*
X95440000Y-33830000D01*
X89440000Y-33850000D02*
X95420000Y-33850000D01*
X101790000Y-27480000D02*
X101790000Y-27020000D01*
%TO.N,Net-(C8-Pad1)*%
X158410000Y-39380000D02*
X158420000Y-39390000D01*
X150200000Y-39380000D02*
X153080000Y-42260000D01*
X150200000Y-39380000D02*
X158410000Y-39380000D01*
X153080000Y-42260000D02*
X153080000Y-49160000D01*
%TO.N,Net-(C9-Pad2)*%
X163420000Y-39390000D02*
X163420000Y-63190000D01*
X163420000Y-63190000D02*
X165270000Y-65040000D01*
X168840000Y-50390000D02*
X163420000Y-44970000D01*
X163420000Y-44970000D02*
X163420000Y-39390000D01*
%TO.N,Net-(J1-Pad2)*%
X14290002Y-36430018D02*
X17369982Y-36430018D01*
X14290002Y-36430018D02*
X26450018Y-36430018D01*
X26450018Y-36430018D02*
X28160000Y-38140000D01*
X14290002Y-36430018D02*
X14290002Y-41930017D01*
X17369982Y-36430018D02*
X20540000Y-33260000D01*
D32*
%TO.N,Net-(J2-CC1)*%
X15795000Y-12014000D02*
X17415000Y-10394000D01*
X7675000Y-12014000D02*
X15795000Y-12014000D01*
%TO.N,Net-(J2-CC2)*%
X7675000Y-13014000D02*
X15985000Y-13014000D01*
X15985000Y-13014000D02*
X17415000Y-14444000D01*
D29*
%TO.N,Net-(U1-OUT2)*%
X62425000Y-51232500D02*
X62425000Y-55662500D01*
X62425000Y-60672500D02*
X62390000Y-60707500D01*
X62425000Y-55662500D02*
X62570000Y-55807500D01*
X62425000Y-51232500D02*
X62425000Y-60672500D01*
%TO.N,Net-(SW1-B)*%
X73534000Y-42231500D02*
X57528500Y-42231500D01*
X75070000Y-43767500D02*
X73534000Y-42231500D01*
X57528500Y-42231500D02*
X49290000Y-50470000D01*
%TO.N,Net-(Q1-C)*%
X95440000Y-43990000D02*
X95440000Y-46530000D01*
X101790000Y-37640000D02*
X100739000Y-36589000D01*
X100739000Y-30611000D02*
X101790000Y-29560000D01*
X95440000Y-46530000D02*
X93770000Y-48200000D01*
X93770000Y-48200000D02*
X89740000Y-48200000D01*
X100739000Y-36589000D02*
X100739000Y-30611000D01*
X101790000Y-37640000D02*
X95440000Y-43990000D01*
%TO.N,Net-(Q2-C)*%
X94940000Y-86787500D02*
X100897500Y-86787500D01*
X100897500Y-86787500D02*
X103440000Y-89330000D01*
X103370000Y-81180000D02*
X103440000Y-81250000D01*
X94940000Y-81180000D02*
X103370000Y-81180000D01*
X94940000Y-81180000D02*
X94940000Y-86787500D01*
%TO.N,Net-(Q2-B)*%
X77810000Y-72197500D02*
X77810000Y-55807500D01*
X94940000Y-89327500D02*
X77810000Y-72197500D01*
%TO.N,Net-(Q3-E)*%
X101790000Y-32100000D02*
X101790000Y-35100000D01*
%TO.N,Net-(Q5-E)*%
X103440000Y-86790000D02*
X110430000Y-86790000D01*
X110430000Y-86790000D02*
X110580000Y-86940000D01*
X103440000Y-86790000D02*
X103440000Y-83790000D01*
%TO.N,Net-(Q7-G)*%
X108100000Y-48490000D02*
X110640000Y-45950000D01*
X108100000Y-54430000D02*
X108100000Y-48490000D01*
%TO.N,Net-(Q8-G)*%
X110580000Y-65927500D02*
X113180000Y-63327500D01*
X110580000Y-71700000D02*
X110580000Y-65927500D01*
%TO.N,Net-(C1-Pad2)*%
X30700000Y-38140000D02*
X33240000Y-38140000D01*
X33360000Y-38150000D02*
X39430000Y-38150000D01*
X30700000Y-38140000D02*
X30700000Y-45150000D01*
X33350000Y-38140000D02*
X33360000Y-38150000D01*
X33240000Y-38140000D02*
X33350000Y-38140000D01*
%TO.N,Net-(C4-Pad1)*%
X34430000Y-50150000D02*
X39430000Y-45150000D01*
X30700000Y-50150000D02*
X34430000Y-50150000D01*
%TO.N,Net-(C5-Pad1)*%
X123240000Y-47880000D02*
X126530000Y-47880000D01*
X126530000Y-47880000D02*
X133080000Y-41330000D01*
%TO.N,Net-(C6-Pad1)*%
X116040000Y-89260000D02*
X116040000Y-93690000D01*
X118240000Y-86910000D02*
X118240000Y-87060000D01*
X118240000Y-87060000D02*
X116040000Y-89260000D01*
%TO.N,Net-(SW1-A)*%
X44430000Y-38150000D02*
X44430000Y-45150000D01*
X44430000Y-38150000D02*
X44430000Y-33150000D01*
X44430000Y-48150000D02*
X46750000Y-50470000D01*
X44430000Y-38150000D02*
X50510000Y-38150000D01*
X50510000Y-38150000D02*
X50520000Y-38160000D01*
X44430000Y-45150000D02*
X44430000Y-48150000D01*
%TO.N,/Other Inputs*%
X51830000Y-55500000D02*
X51820000Y-55510000D01*
X51830000Y-50470000D02*
X51830000Y-55500000D01*
%TD*%
%TA.AperFunction,Conductor*%
%TO.N,+5V*%
G36*
X76995233Y-51296708D02*
G01*
X76998744Y-51299048D01*
X77608756Y-51705493D01*
X77612006Y-51708743D01*
X78020790Y-52322265D01*
X78022525Y-52331050D01*
X78018451Y-52337816D01*
X76991987Y-53175547D01*
X76983411Y-53178123D01*
X76976316Y-53174756D01*
X76142743Y-52341183D01*
X76139316Y-52332910D01*
X76141950Y-52325515D01*
X76979685Y-51299046D01*
X76987569Y-51294806D01*
X76995233Y-51296708D01*
G37*
%TD.AperFunction*%
%TD*%
%TA.AperFunction,Conductor*%
%TO.N,Net-(SW1-B)*%
G36*
X74097139Y-42648682D02*
G01*
X75206646Y-43028599D01*
X75213363Y-43034521D01*
X75214334Y-43041938D01*
X75072227Y-43760519D01*
X75067260Y-43767970D01*
X75063019Y-43769727D01*
X74344438Y-43911834D01*
X74335657Y-43910077D01*
X74331099Y-43904146D01*
X74281918Y-43760519D01*
X73951183Y-42794642D01*
X73951745Y-42785707D01*
X73953976Y-42782584D01*
X74085082Y-42651478D01*
X74093354Y-42648052D01*
X74097139Y-42648682D01*
G37*
%TD.AperFunction*%
%TD*%
%TA.AperFunction,Conductor*%
%TO.N,Net-(D1-K)*%
G36*
X101067301Y-26876231D02*
G01*
X101785937Y-27018349D01*
X101793387Y-27023316D01*
X101793403Y-27023340D01*
X102199906Y-27633438D01*
X102201641Y-27642223D01*
X102196656Y-27649662D01*
X102196233Y-27649931D01*
X101100502Y-28314009D01*
X101091651Y-28315366D01*
X101086165Y-28312276D01*
X100955050Y-28181161D01*
X100951623Y-28172888D01*
X100951658Y-28171984D01*
X101053373Y-26886785D01*
X101057442Y-26878810D01*
X101065960Y-26876046D01*
X101067301Y-26876231D01*
G37*
%TD.AperFunction*%
%TD*%
%TA.AperFunction,Conductor*%
%TO.N,Net-(Q7-S)*%
G36*
X113718786Y-53595687D02*
G01*
X115078839Y-54326689D01*
X115084504Y-54333623D01*
X115085000Y-54336994D01*
X115085000Y-54523005D01*
X115081573Y-54531278D01*
X115078839Y-54533311D01*
X113718788Y-55264311D01*
X113709878Y-55265209D01*
X113703357Y-55260253D01*
X113182946Y-54436248D01*
X113181425Y-54427423D01*
X113182946Y-54423752D01*
X113703357Y-53599746D01*
X113710672Y-53594581D01*
X113718786Y-53595687D01*
G37*
%TD.AperFunction*%
%TD*%
%TA.AperFunction,Conductor*%
%TO.N,Net-(U1-1IN+)*%
G36*
X69566507Y-83353358D02*
G01*
X70175109Y-83760989D01*
X70180076Y-83768440D01*
X70179105Y-83775857D01*
X69663210Y-84829036D01*
X69656493Y-84834958D01*
X69652703Y-84835589D01*
X69467297Y-84835589D01*
X69459024Y-84832162D01*
X69456790Y-84829036D01*
X68940894Y-83775857D01*
X68940332Y-83766920D01*
X68944888Y-83760991D01*
X69553491Y-83353359D01*
X69562270Y-83351603D01*
X69566507Y-83353358D01*
G37*
%TD.AperFunction*%
%TD*%
%TA.AperFunction,Conductor*%
%TO.N,Net-(U1-1IN+)*%
G36*
X72630976Y-50225338D02*
G01*
X72633210Y-50228464D01*
X73149105Y-51281642D01*
X73149667Y-51290579D01*
X73145109Y-51296510D01*
X72536511Y-51704139D01*
X72527730Y-51705896D01*
X72523489Y-51704139D01*
X71914890Y-51296510D01*
X71909923Y-51289059D01*
X71910893Y-51281644D01*
X72426790Y-50228463D01*
X72433507Y-50222542D01*
X72437297Y-50221911D01*
X72622703Y-50221911D01*
X72630976Y-50225338D01*
G37*
%TD.AperFunction*%
%TD*%
%TA.AperFunction,Conductor*%
%TO.N,+5V*%
G36*
X75273683Y-81882743D02*
G01*
X76107256Y-82716316D01*
X76110683Y-82724589D01*
X76108047Y-82731987D01*
X75270316Y-83758451D01*
X75262430Y-83762693D01*
X75254765Y-83760790D01*
X74641243Y-83352006D01*
X74637993Y-83348756D01*
X74229209Y-82735234D01*
X74227474Y-82726449D01*
X74231546Y-82719685D01*
X75258014Y-81881951D01*
X75266588Y-81879376D01*
X75273683Y-81882743D01*
G37*
%TD.AperFunction*%
%TD*%
%TA.AperFunction,Conductor*%
%TO.N,Net-(Q5-E)*%
G36*
X103542930Y-85293427D02*
G01*
X103543499Y-85294037D01*
X104182869Y-86031772D01*
X104185697Y-86040269D01*
X104182306Y-86047703D01*
X103448279Y-86782709D01*
X103440008Y-86786141D01*
X103431732Y-86782720D01*
X103431721Y-86782709D01*
X102697693Y-86047703D01*
X102694272Y-86039427D01*
X102697129Y-86031773D01*
X103336501Y-85294036D01*
X103344509Y-85290030D01*
X103345343Y-85290000D01*
X103534657Y-85290000D01*
X103542930Y-85293427D01*
G37*
%TD.AperFunction*%
%TD*%
%TA.AperFunction,Conductor*%
%TO.N,Net-(Q7-G)*%
G36*
X108203043Y-52480927D02*
G01*
X108203488Y-52481397D01*
X109045298Y-53421954D01*
X109048262Y-53430404D01*
X109045056Y-53437822D01*
X108108476Y-54422092D01*
X108100290Y-54425723D01*
X108091935Y-54422503D01*
X108091524Y-54422092D01*
X107154943Y-53437822D01*
X107151723Y-53429467D01*
X107154701Y-53421954D01*
X107996512Y-52481397D01*
X108004583Y-52477518D01*
X108005230Y-52477500D01*
X108194770Y-52477500D01*
X108203043Y-52480927D01*
G37*
%TD.AperFunction*%
%TD*%
%TA.AperFunction,Conductor*%
%TO.N,Net-(Q3-E)*%
G36*
X101892930Y-33603427D02*
G01*
X101893499Y-33604037D01*
X102532869Y-34341772D01*
X102535697Y-34350269D01*
X102532306Y-34357703D01*
X101798279Y-35092709D01*
X101790008Y-35096141D01*
X101781732Y-35092720D01*
X101781721Y-35092709D01*
X101047693Y-34357703D01*
X101044272Y-34349427D01*
X101047129Y-34341773D01*
X101686501Y-33604036D01*
X101694509Y-33600030D01*
X101695343Y-33600000D01*
X101884657Y-33600000D01*
X101892930Y-33603427D01*
G37*
%TD.AperFunction*%
%TD*%
%TA.AperFunction,Conductor*%
%TO.N,Net-(Q1-C)*%
G36*
X101783020Y-37637772D02*
G01*
X101790470Y-37642739D01*
X101792227Y-37646980D01*
X101934334Y-38365561D01*
X101932577Y-38374342D01*
X101926646Y-38378900D01*
X100817144Y-38758816D01*
X100808207Y-38758254D01*
X100805081Y-38756020D01*
X100673979Y-38624918D01*
X100670552Y-38616645D01*
X100671181Y-38612861D01*
X101051099Y-37503352D01*
X101057021Y-37496636D01*
X101064438Y-37495665D01*
X101783020Y-37637772D01*
G37*
%TD.AperFunction*%
%TD*%
%TA.AperFunction,Conductor*%
%TO.N,+5V*%
G36*
X111580287Y-52654593D02*
G01*
X112415352Y-53489658D01*
X112418779Y-53497931D01*
X112416837Y-53504387D01*
X112396590Y-53534988D01*
X112395105Y-53536805D01*
X112300547Y-53631364D01*
X112300533Y-53631380D01*
X112193869Y-53778189D01*
X112111471Y-53939906D01*
X112111471Y-53939907D01*
X112095362Y-53989482D01*
X112093993Y-53992322D01*
X111453741Y-54959982D01*
X111446317Y-54964991D01*
X111437527Y-54963284D01*
X111437489Y-54963259D01*
X111432577Y-54959982D01*
X110641573Y-54432228D01*
X110637924Y-54428325D01*
X110153236Y-53584838D01*
X110152086Y-53575959D01*
X110157000Y-53569203D01*
X111565635Y-52653057D01*
X111574439Y-52651420D01*
X111580287Y-52654593D01*
G37*
%TD.AperFunction*%
%TD*%
%TA.AperFunction,Conductor*%
%TO.N,Net-(Q5-E)*%
G36*
X104198227Y-86047130D02*
G01*
X104935963Y-86686501D01*
X104939970Y-86694509D01*
X104940000Y-86695343D01*
X104940000Y-86884656D01*
X104936573Y-86892929D01*
X104935963Y-86893498D01*
X104198227Y-87532869D01*
X104189730Y-87535697D01*
X104182296Y-87532306D01*
X103447290Y-86798279D01*
X103443858Y-86790008D01*
X103447279Y-86781732D01*
X103447290Y-86781721D01*
X103542637Y-86686501D01*
X104182297Y-86047692D01*
X104190572Y-86044272D01*
X104198227Y-86047130D01*
G37*
%TD.AperFunction*%
%TD*%
%TA.AperFunction,Conductor*%
%TO.N,Net-(U1-OUT1)*%
G36*
X76407519Y-42419282D02*
G01*
X77880331Y-43001556D01*
X77909614Y-43013133D01*
X77916047Y-43019362D01*
X77916193Y-43028316D01*
X77916126Y-43028479D01*
X77612562Y-43763713D01*
X77606238Y-43770052D01*
X77606213Y-43770062D01*
X76870979Y-44073626D01*
X76862024Y-44073616D01*
X76855700Y-44067277D01*
X76855633Y-44067114D01*
X76738190Y-43770052D01*
X76261783Y-42565021D01*
X76261929Y-42556070D01*
X76264388Y-42552452D01*
X76394950Y-42421890D01*
X76403222Y-42418464D01*
X76407519Y-42419282D01*
G37*
%TD.AperFunction*%
%TD*%
%TA.AperFunction,Conductor*%
%TO.N,Net-(Q7-S)*%
G36*
X110741105Y-61396729D02*
G01*
X110743256Y-61399689D01*
X111427444Y-62741931D01*
X111428148Y-62750858D01*
X111423915Y-62756697D01*
X110646895Y-63323470D01*
X110638191Y-63325576D01*
X110633105Y-63323470D01*
X109856084Y-62756697D01*
X109851420Y-62749053D01*
X109852554Y-62741932D01*
X110536744Y-61399688D01*
X110543554Y-61393874D01*
X110547168Y-61393302D01*
X110732832Y-61393302D01*
X110741105Y-61396729D01*
G37*
%TD.AperFunction*%
%TD*%
%TA.AperFunction,Conductor*%
%TO.N,Net-(Q7-S)*%
G36*
X113173424Y-54427480D02*
G01*
X113180624Y-54432803D01*
X113182096Y-54436667D01*
X113363880Y-55401382D01*
X113362044Y-55410147D01*
X113355779Y-55414745D01*
X111899575Y-55856521D01*
X111890663Y-55855644D01*
X111887905Y-55853598D01*
X111756514Y-55722207D01*
X111753087Y-55713934D01*
X111753660Y-55710316D01*
X112242431Y-54207042D01*
X112248247Y-54200236D01*
X112256380Y-54199308D01*
X113173424Y-54427480D01*
G37*
%TD.AperFunction*%
%TD*%
%TA.AperFunction,Conductor*%
%TO.N,Net-(Q1-C)*%
G36*
X90165856Y-47580893D02*
G01*
X91219036Y-48096790D01*
X91224958Y-48103507D01*
X91225589Y-48107297D01*
X91225589Y-48292702D01*
X91222162Y-48300975D01*
X91219036Y-48303209D01*
X90165857Y-48819105D01*
X90156920Y-48819667D01*
X90150990Y-48815109D01*
X89743359Y-48206508D01*
X89741603Y-48197730D01*
X89743358Y-48193492D01*
X90150991Y-47584888D01*
X90158440Y-47579923D01*
X90165856Y-47580893D01*
G37*
%TD.AperFunction*%
%TD*%
%TA.AperFunction,Conductor*%
%TO.N,Net-(Q2-C)*%
G36*
X95365856Y-86168393D02*
G01*
X96419036Y-86684290D01*
X96424958Y-86691007D01*
X96425589Y-86694797D01*
X96425589Y-86880202D01*
X96422162Y-86888475D01*
X96419036Y-86890709D01*
X95365857Y-87406605D01*
X95356920Y-87407167D01*
X95350990Y-87402609D01*
X94943359Y-86794008D01*
X94941603Y-86785230D01*
X94943358Y-86780992D01*
X95350991Y-86172388D01*
X95358440Y-86167423D01*
X95365856Y-86168393D01*
G37*
%TD.AperFunction*%
%TD*%
%TA.AperFunction,Conductor*%
%TO.N,Net-(Q2-C)*%
G36*
X102467139Y-88211182D02*
G01*
X103576646Y-88591099D01*
X103583363Y-88597021D01*
X103584334Y-88604438D01*
X103442227Y-89323019D01*
X103437260Y-89330470D01*
X103433019Y-89332227D01*
X102714438Y-89474334D01*
X102705657Y-89472577D01*
X102701099Y-89466646D01*
X102651918Y-89323019D01*
X102321183Y-88357142D01*
X102321745Y-88348207D01*
X102323976Y-88345084D01*
X102455082Y-88213978D01*
X102463354Y-88210552D01*
X102467139Y-88211182D01*
G37*
%TD.AperFunction*%
%TD*%
%TA.AperFunction,Conductor*%
%TO.N,Net-(Q8-G)*%
G36*
X112238611Y-62937552D02*
G01*
X113175839Y-63324782D01*
X113182176Y-63331108D01*
X113182428Y-63331768D01*
X113523279Y-64316639D01*
X113522746Y-64325578D01*
X113516246Y-64331452D01*
X111631706Y-65021659D01*
X111622759Y-65021287D01*
X111619409Y-65018946D01*
X111488632Y-64888169D01*
X111485205Y-64879896D01*
X111485973Y-64875728D01*
X112223213Y-62944191D01*
X112229364Y-62937686D01*
X112238315Y-62937434D01*
X112238611Y-62937552D01*
G37*
%TD.AperFunction*%
%TD*%
%TA.AperFunction,Conductor*%
%TO.N,Net-(Q5-E)*%
G36*
X103448268Y-83797279D02*
G01*
X103448279Y-83797290D01*
X104182306Y-84532296D01*
X104185727Y-84540572D01*
X104182869Y-84548227D01*
X103543499Y-85285963D01*
X103535491Y-85289970D01*
X103534657Y-85290000D01*
X103345343Y-85290000D01*
X103337070Y-85286573D01*
X103336501Y-85285963D01*
X102697130Y-84548227D01*
X102694302Y-84539730D01*
X102697692Y-84532297D01*
X103431721Y-83797289D01*
X103439992Y-83793858D01*
X103448268Y-83797279D01*
G37*
%TD.AperFunction*%
%TD*%
%TA.AperFunction,Conductor*%
%TO.N,Net-(Q1-C)*%
G36*
X100817139Y-36521182D02*
G01*
X101926646Y-36901099D01*
X101933363Y-36907021D01*
X101934334Y-36914438D01*
X101792227Y-37633019D01*
X101787260Y-37640470D01*
X101783019Y-37642227D01*
X101064438Y-37784334D01*
X101055657Y-37782577D01*
X101051099Y-37776646D01*
X101001918Y-37633019D01*
X100671183Y-36667142D01*
X100671745Y-36658207D01*
X100673976Y-36655084D01*
X100805082Y-36523978D01*
X100813354Y-36520552D01*
X100817139Y-36521182D01*
G37*
%TD.AperFunction*%
%TD*%
%TA.AperFunction,Conductor*%
%TO.N,Net-(Q2-B)*%
G36*
X93967139Y-88208682D02*
G01*
X95076646Y-88588599D01*
X95083363Y-88594521D01*
X95084334Y-88601938D01*
X94942227Y-89320519D01*
X94937260Y-89327970D01*
X94933019Y-89329727D01*
X94214438Y-89471834D01*
X94205657Y-89470077D01*
X94201099Y-89464146D01*
X94151918Y-89320519D01*
X93821183Y-88354642D01*
X93821745Y-88345707D01*
X93823976Y-88342584D01*
X93955082Y-88211478D01*
X93963354Y-88208052D01*
X93967139Y-88208682D01*
G37*
%TD.AperFunction*%
%TD*%
%TA.AperFunction,Conductor*%
%TO.N,Net-(Q2-C)*%
G36*
X95040976Y-85305338D02*
G01*
X95043210Y-85308464D01*
X95559105Y-86361642D01*
X95559667Y-86370579D01*
X95555109Y-86376510D01*
X94946511Y-86784139D01*
X94937730Y-86785896D01*
X94933489Y-86784139D01*
X94324890Y-86376510D01*
X94319923Y-86369059D01*
X94320893Y-86361644D01*
X94836790Y-85308463D01*
X94843507Y-85302542D01*
X94847297Y-85301911D01*
X95032703Y-85301911D01*
X95040976Y-85305338D01*
G37*
%TD.AperFunction*%
%TD*%
%TA.AperFunction,Conductor*%
%TO.N,Net-(Q2-C)*%
G36*
X103028706Y-80634436D02*
G01*
X103436639Y-81243489D01*
X103438396Y-81252270D01*
X103436639Y-81256511D01*
X103029312Y-81864658D01*
X103021861Y-81869625D01*
X103013911Y-81868376D01*
X101960431Y-81283343D01*
X101954862Y-81276330D01*
X101954411Y-81273114D01*
X101954411Y-81087744D01*
X101957838Y-81079471D01*
X101961537Y-81076976D01*
X103014416Y-80630176D01*
X103023369Y-80630099D01*
X103028706Y-80634436D01*
G37*
%TD.AperFunction*%
%TD*%
%TA.AperFunction,Conductor*%
%TO.N,Net-(Q1-C)*%
G36*
X101783020Y-29557772D02*
G01*
X101790470Y-29562739D01*
X101792227Y-29566980D01*
X101934334Y-30285561D01*
X101932577Y-30294342D01*
X101926646Y-30298900D01*
X100817144Y-30678816D01*
X100808207Y-30678254D01*
X100805081Y-30676020D01*
X100673979Y-30544918D01*
X100670552Y-30536645D01*
X100671181Y-30532861D01*
X101051099Y-29423352D01*
X101057021Y-29416636D01*
X101064438Y-29415665D01*
X101783020Y-29557772D01*
G37*
%TD.AperFunction*%
%TD*%
%TA.AperFunction,Conductor*%
%TO.N,Net-(Q7-S)*%
G36*
X114469336Y-53004355D02*
G01*
X114472094Y-53006401D01*
X114603485Y-53137792D01*
X114606912Y-53146065D01*
X114606339Y-53149683D01*
X114117569Y-54652955D01*
X114111752Y-54659763D01*
X114103617Y-54660691D01*
X113186576Y-54432519D01*
X113179375Y-54427196D01*
X113177903Y-54423332D01*
X112996119Y-53458615D01*
X112997955Y-53449852D01*
X113004217Y-53445255D01*
X114460427Y-53003478D01*
X114469336Y-53004355D01*
G37*
%TD.AperFunction*%
%TD*%
%TA.AperFunction,Conductor*%
%TO.N,Net-(U1-1IN+)*%
G36*
X72523020Y-51705272D02*
G01*
X72530470Y-51710239D01*
X72532227Y-51714480D01*
X72674334Y-52433061D01*
X72672577Y-52441842D01*
X72666646Y-52446400D01*
X71557144Y-52826316D01*
X71548207Y-52825754D01*
X71545081Y-52823520D01*
X71413979Y-52692418D01*
X71410552Y-52684145D01*
X71411181Y-52680361D01*
X71791099Y-51570852D01*
X71797021Y-51564136D01*
X71804438Y-51563165D01*
X72523020Y-51705272D01*
G37*
%TD.AperFunction*%
%TD*%
%TA.AperFunction,Conductor*%
%TO.N,Net-(Q3-E)*%
G36*
X101798268Y-32107279D02*
G01*
X101798279Y-32107290D01*
X102532306Y-32842296D01*
X102535727Y-32850572D01*
X102532869Y-32858227D01*
X101893499Y-33595963D01*
X101885491Y-33599970D01*
X101884657Y-33600000D01*
X101695343Y-33600000D01*
X101687070Y-33596573D01*
X101686501Y-33595963D01*
X101047130Y-32858227D01*
X101044302Y-32849730D01*
X101047692Y-32842297D01*
X101781721Y-32107289D01*
X101789992Y-32103858D01*
X101798268Y-32107279D01*
G37*
%TD.AperFunction*%
%TD*%
%TA.AperFunction,Conductor*%
%TO.N,Net-(U1-1IN+)*%
G36*
X72536507Y-43770858D02*
G01*
X73145109Y-44178489D01*
X73150076Y-44185940D01*
X73149105Y-44193357D01*
X72633210Y-45246536D01*
X72626493Y-45252458D01*
X72622703Y-45253089D01*
X72437297Y-45253089D01*
X72429024Y-45249662D01*
X72426790Y-45246536D01*
X71910894Y-44193357D01*
X71910332Y-44184420D01*
X71914888Y-44178491D01*
X72523491Y-43770859D01*
X72532270Y-43769103D01*
X72536507Y-43770858D01*
G37*
%TD.AperFunction*%
%TD*%
%TA.AperFunction,Conductor*%
%TO.N,Net-(U1-1IN+)*%
G36*
X72093020Y-75407772D02*
G01*
X72100470Y-75412739D01*
X72102227Y-75416980D01*
X72244334Y-76135561D01*
X72242577Y-76144342D01*
X72236646Y-76148900D01*
X71127144Y-76528816D01*
X71118207Y-76528254D01*
X71115081Y-76526020D01*
X70983979Y-76394918D01*
X70980552Y-76386645D01*
X70981181Y-76382861D01*
X71361099Y-75273352D01*
X71367021Y-75266636D01*
X71374438Y-75265665D01*
X72093020Y-75407772D01*
G37*
%TD.AperFunction*%
%TD*%
%TA.AperFunction,Conductor*%
%TO.N,Net-(U1-1IN+)*%
G36*
X69660976Y-81867838D02*
G01*
X69663210Y-81870964D01*
X70179105Y-82924142D01*
X70179667Y-82933079D01*
X70175109Y-82939010D01*
X69566511Y-83346639D01*
X69557730Y-83348396D01*
X69553489Y-83346639D01*
X68944890Y-82939010D01*
X68939923Y-82931559D01*
X68940893Y-82924144D01*
X69456790Y-81870963D01*
X69463507Y-81865042D01*
X69467297Y-81864411D01*
X69652703Y-81864411D01*
X69660976Y-81867838D01*
G37*
%TD.AperFunction*%
%TD*%
%TA.AperFunction,Conductor*%
%TO.N,+5V*%
G36*
X67617698Y-73927838D02*
G01*
X67621065Y-73934933D01*
X67754519Y-75253117D01*
X67751943Y-75261693D01*
X67745177Y-75265767D01*
X67022298Y-75410539D01*
X67017702Y-75410539D01*
X66294822Y-75265767D01*
X66287383Y-75260782D01*
X66285480Y-75253118D01*
X66418935Y-73934932D01*
X66423177Y-73927047D01*
X66430575Y-73924411D01*
X67609425Y-73924411D01*
X67617698Y-73927838D01*
G37*
%TD.AperFunction*%
%TD*%
M02*
